<?xml version="1.0" encoding="utf-8"?>
<!-- Generator: Adobe Illustrator 18.0.0, SVG Export Plug-In . SVG Version: 6.00 Build 0)  -->
<!DOCTYPE svg PUBLIC "-//W3C//DTD SVG 1.1//EN" "http://www.w3.org/Graphics/SVG/1.1/DTD/svg11.dtd">
<svg version="1.1" xmlns="http://www.w3.org/2000/svg" xmlns:xlink="http://www.w3.org/1999/xlink" x="0px" y="0px"
	 viewBox="0 0 2255 1400" enable-background="new 0 0 2255 1400" xml:space="preserve">
<g id="Background">
	<rect x="-14.4" y="-7.5" fill="#00343E" width="2290.1" height="1415.7"/>
</g>
<g id="Object">
	<g>
		<path fill="#002932" d="M472.8,147.6c0.4,0.4,0.9,0.7,1.5,0.7c0.1,0,0.2,0,0.3,0l30.7-5.3c0.7-0.1,1.3-0.6,1.5-1.3
			c0.2-0.7,0.1-1.4-0.4-2l-18.7-21.4c-0.4-0.4-0.9-0.7-1.5-0.7h-36.1c-0.8,0-1.5,0.5-1.8,1.2c-0.3,0.7-0.2,1.6,0.3,2.2L472.8,147.6z
			 M485.4,121.5l15.7,18l-26.1,4.5l-20.3-22.5H485.4z"/>
		<path fill="#002932" d="M406.7,196.1l42.7,20c0,0,0,0,0.1,0c0.2,0.1,0.5,0.2,0.8,0.2c0,0,0,0,0,0c0,0,0,0,0,0c0,0,0,0,0,0
			c0.1,0,0.2,0,0.3,0c0,0,0.1,0,0.1,0c0.2,0,0.4-0.1,0.6-0.2c0,0,0.1,0,0.1,0c0,0,0,0,0,0l48.1-30c0.6-0.4,0.9-1,0.9-1.7v-19.4
			c0-1-0.7-1.8-1.6-2l-56.1-10.7c-0.2,0-0.4,0-0.6,0c0,0,0,0,0,0c0,0-0.1,0-0.1,0c-0.2,0-0.4,0.1-0.6,0.2c0,0-0.1,0-0.1,0.1
			c-0.2,0.1-0.3,0.2-0.5,0.4L406,193c-0.4,0.5-0.6,1.1-0.4,1.7C405.7,195.3,406.1,195.8,406.7,196.1z M496.3,166.6v16.6L451.8,211
			l-7.2-54.3L496.3,166.6z M440.9,158.9l6.9,52l-37-17.3L440.9,158.9z"/>
		<path fill="#002932" d="M784.6,851.9l-44.1-10.7c0,0,0,0,0,0c0,0,0,0,0,0l-0.1,0l-53.3-8l-58.1-10.6l-49-47.6
			c-0.4-0.4-0.9-0.6-1.5-0.6l-72.1,2.7c0,0,0,0,0,0l0,0c-0.5,0-1,0.2-1.4,0.6l0,0c0,0,0,0,0,0l-25.3,26.5l-11.9-11.9
			c-0.4-0.4-0.9-0.6-1.4-0.6H450l-9.5-14.3l7.7-21.7c0.2-0.4,0.2-0.9,0-1.3c0,0,0,0,0,0c0-0.1-0.1-0.2-0.1-0.2c0,0,0,0,0,0
			c-0.2-0.4-0.5-0.7-0.9-0.9h0c0,0,0,0,0,0c0,0,0,0,0,0c-0.1,0-0.1-0.1-0.2-0.1h0c0,0,0,0,0,0c0,0,0,0,0,0c-0.1,0-0.2-0.1-0.3-0.1
			l-36.2-6.2l20.4-47.1c0.2-0.6,0.2-1.2-0.1-1.7c-0.3-0.5-0.8-0.9-1.4-1l-21.4-4c-0.1,0-0.2,0-0.3,0c0,0-0.1,0-0.1,0c0,0,0,0-0.1,0
			c-0.2,0-0.5,0.1-0.7,0.1c0,0-0.1,0-0.1,0.1c-0.2,0.1-0.3,0.2-0.5,0.3c0,0-0.1,0.1-0.1,0.1c0,0-0.1,0.1-0.1,0.1l-9,11.6l-16.1,7.4
			l-19-8.3l7.5-34l32.8-38l20.6-9l28.2-2.5v48.6c0,0.8,0.5,1.5,1.2,1.8c0.7,0.3,1.6,0.2,2.2-0.4l24.7-22.7c0.4-0.4,0.6-0.9,0.6-1.5
			V617l20-22c0,0,0,0,0,0l0.1-0.1l41.1-43.7l31.7-13.2c0.5-0.2,0.8-0.5,1-1l14.1-29.6h32.1c1.1,0,2-0.9,2-2v-55.5l45.8-2.4
			l-12.2,31.8c-0.2,0.6-0.2,1.3,0.2,1.8l16,25.4c0.3,0.5,0.9,0.9,1.5,0.9c0.6,0.1,1.2-0.1,1.6-0.6l13.4-13.4
			c0.7-0.7,0.8-1.8,0.2-2.6l-10.3-14.2l-1.2-18.7l11.5-14.1c0.7-0.8,0.6-2.1-0.2-2.8l-19.7-17L657.8,398l-5.3-29.2
			c-0.1-0.6-0.5-1.1-1-1.4l-59-34.7l21-18.7l49.6,20.9c0.7,0.3,1.4,0.2,2-0.3c0.6-0.5,0.9-1.2,0.7-1.9l-6.3-37.7h27
			c0.7,0,1.3-0.3,1.6-0.8c0.4-0.5,0.5-1.2,0.3-1.8l-8-22.7c-0.1-0.2-0.2-0.4-0.3-0.6l-17.5-21.5l-20-21.4c-0.2-0.2-0.4-0.3-0.6-0.4
			l-42.1-19.7L584.2,176c-0.3-0.7-1-1.1-1.8-1.1c0,0,0,0,0,0c-0.8,0-1.4,0.4-1.8,1.1l-24,48.1c-0.3,0.6-0.3,1.4,0.1,2
			c0.4,0.6,1,0.9,1.8,0.9l32.6-1.1l-41.6,25.8L517.2,213c-0.1-0.1-0.2-0.2-0.3-0.2c0,0-0.1-0.1-0.1-0.1c-0.4-0.3-0.9-0.4-1.4-0.3
			c0,0,0,0-0.1,0c-0.1,0-0.1,0-0.1,0.1c-0.1,0-0.2,0-0.3,0.1l-72.2,28.9l-79.2-77.9c0,0,0,0,0,0c0,0-0.1-0.1-0.1-0.1
			c0,0-0.1-0.1-0.1-0.1c-0.1-0.1-0.2-0.1-0.3-0.2c-0.1,0-0.2-0.1-0.2-0.1c-0.1,0-0.1,0-0.2-0.1l-78.3-18.6l-53-46.4
			c-0.1-0.1-0.2-0.1-0.3-0.2c-0.1-0.1-0.2-0.1-0.3-0.2c-0.1-0.1-0.3-0.1-0.4-0.1c-0.1,0-0.2-0.1-0.3-0.1c0,0-0.1,0-0.1,0h-84.1
			c-0.7,0-1.3,0.3-1.6,0.9c-0.4,0.5-0.5,1.2-0.2,1.8l19.3,52.7l-50,14.1c-0.6,0.2-1,0.5-1.3,1.1l-21.4,45.4
			c-0.1,0.1-0.1,0.3-0.1,0.4l-10.7,45.4c-0.2,0.6,0,1.3,0.5,1.8l29.4,32c0.1,0.2,0.3,0.3,0.5,0.4c0,0,0,0,0,0c0,0,0,0,0,0
			c0,0,0,0,0,0c0.2,0.1,0.3,0.1,0.5,0.2c0.1,0,0.1,0,0.2,0c0.1,0,0.1,0,0.2,0c0.1,0,0.2,0,0.2,0c0.1,0,0.1,0,0.2,0
			c0.2,0,0.4-0.1,0.6-0.2c0,0,0,0,0,0l0,0c0,0,0,0,0,0l40.8-23.7l42.8,6.5l41.6,35.1l2.6,65.9c0,0.4,0.2,0.8,0.4,1.2l33.7,41.5
			l-40.5,56.1l-20,26.7c-0.3,0.3-0.4,0.8-0.4,1.2v46.7c0,0.4,0.1,0.7,0.3,1l26.4,43.6v59.5c0,0.5,0.2,1,0.6,1.4l18.5,18.5l13.2,21.2
			c0.1,0.2,0.3,0.4,0.6,0.6l28.5,19.7c0,0,0,0,0,0l6.3,4.4l47.9,29.3l22.5,22.5c0.5,0.5,1.1,0.7,1.7,0.6l44.4-7.4l-3.8,8.5
			L407.2,794c-0.5,0.8-0.4,1.9,0.3,2.6l32,30.7c0.4,0.4,1,0.6,1.5,0.6c0.6,0,1.1-0.3,1.4-0.8l8.9-11.5l25.7-5.8l-6.1,32.9
			l-18.7,70.8c-0.1,0.2-0.1,0.5-0.1,0.7c0,0,0,0,0,0c0,0.1,0,0.1,0,0.2c0,0.2,0.1,0.3,0.1,0.5l26.7,60.1c0,0,0,0.1,0.1,0.1
			c0,0.1,0.1,0.2,0.2,0.2c0.1,0.1,0.1,0.2,0.2,0.3c0,0,0,0.1,0.1,0.1c0,0,0.1,0.1,0.2,0.1c0.1,0,0.1,0.1,0.1,0.1l48.5,30.1l1.3,67.2
			l9.3,80l-4,101.3c0,0,0,0.1,0,0.1c0,0.1,0,0.1,0,0.2c0,0.2,0.1,0.4,0.1,0.6c0,0,0,0,0,0c0.1,0.2,0.2,0.4,0.4,0.6
			c0,0,0,0.1,0.1,0.1l46.7,45.4c0,0,0,0,0,0c0,0,0,0,0.1,0c0.2,0.1,0.3,0.3,0.5,0.3c0,0,0.1,0,0.1,0.1c0,0,0.1,0,0.1,0
			c0,0,0.1,0,0.1,0.1l56.1,13.4c0.2,0,0.3,0.1,0.5,0.1c0.7,0,1.4-0.4,1.8-1.1c0.4-0.8,0.2-1.8-0.5-2.4l-45.4-37.6l19.1-31.9
			c0.4-0.7,0.4-1.6-0.1-2.2l-15.4-20.5l14.2-43.9l38.4-35.8l41.4-44.1c0,0,0,0,0,0c0.1-0.1,0.2-0.3,0.3-0.5c0,0,0,0,0-0.1
			c0.1-0.2,0.1-0.3,0.1-0.5c0-0.1,0-0.1,0-0.2c0,0,0,0,0,0l1.3-44l45.5-16.9c0,0,0.1,0,0.1-0.1c0,0,0.1,0,0.1-0.1
			c0.2-0.1,0.5-0.3,0.6-0.5c0,0,0,0,0,0c0,0,0-0.1,0-0.1c0.1-0.2,0.2-0.4,0.3-0.6c0,0,0-0.1,0-0.1c0,0,0,0,0,0l15.9-75.5l27.6-26.3
			c0,0,0-0.1,0.1-0.1c0.1-0.1,0.2-0.2,0.2-0.4c0.1-0.1,0.1-0.2,0.2-0.3c0.1-0.1,0.1-0.3,0.1-0.4c0-0.1,0.1-0.2,0.1-0.3v-74.8
			C786.1,853,785.5,852.2,784.6,851.9z M420.7,803.7l-9.2-8.9l12.4-18.6c0-0.1,0.1-0.1,0.1-0.2L420.7,803.7z M409.5,697.4l16.5,3.1
			l-16.5,38.2V697.4z M420.9,620l-19.9,8.7l-60.1-33.8l153.9-86L420.9,620z M554.6,433H390.7l86.9-86.2L554.6,433z M481.8,345.4
			l104.6-10l-28.2,95.5L481.8,345.4z M387.3,430.7l-11.2-84.9h96.7L387.3,430.7z M383.5,432.6l-101.9-14l90.7-71L383.5,432.6z
			 M382.5,436.5L329,521l-48.8-98.6L382.5,436.5z M334.5,592.9h-86.9l79.5-63.9L334.5,592.9z M330.8,525.6l48.7-76.9l-41.9,136.5
			L330.8,525.6z M387,438l110,65l-156.8,87.7L387,438z M496.4,592.7l-20.2,22.2c-0.3,0.4-0.5,0.9-0.5,1.3V646l-20.7,19v-46.2
			c0-0.6-0.2-1.1-0.6-1.5c-0.4-0.4-1-0.6-1.5-0.5l-26.6,2.3L498.8,510L496.4,592.7z M393.2,437h161.6l-54.2,63.5L393.2,437z
			 M500.5,588.3l2.4-79.9l34.2,41L500.5,588.3z M570.3,534.5l-30,12.5l-36.7-44l54.8-64.3l25.8,66.5L570.3,534.5z M617.8,503.4h-30
			l-25.5-65.7l55.5,11.9V503.4z M648.7,370.5l5.2,28.5c0,0.1,0.1,0.3,0.1,0.4l10.7,26.7c0.1,0.3,0.3,0.6,0.5,0.8l18.6,16.1
			L673,456.1c-0.3,0.4-0.5,0.9-0.4,1.4l1.3,20c0,0.4,0.2,0.7,0.4,1l9.7,13.3l-10.4,10.4l-14.1-22.4l13-33.8c0.2-0.6,0.2-1.3-0.2-1.9
			c-0.4-0.6-1-0.9-1.7-0.8L620,446l-58.4-12.5l28.7-97.3L648.7,370.5z M661.3,329.9l-45-18.9l28.4-37l10.6,19.8L661.3,329.9z
			 M676.8,271.4l7,19.7h-25.3l-11-20.7l13.9-18.1L676.8,271.4z M561.7,222.9l20.8-41.6l14.2,27.2c0.2,0.4,0.5,0.7,0.9,0.9l42.4,19.9
			l18.6,19.8l-13.5,17.6l-45.2-44.6c0,0-0.1,0-0.1-0.1c-0.1-0.1-0.3-0.2-0.4-0.3c-0.1,0-0.1-0.1-0.2-0.1c-0.2-0.1-0.3-0.1-0.5-0.1
			c-0.1,0-0.1,0-0.2,0c0,0,0,0,0,0L561.7,222.9z M575.5,240.3l11.4,14.4l-10.4,24.1l-24.2-24L575.5,240.3z M575.7,283.7
			c0.5,0.5,1.1,0.7,1.8,0.5c0.7-0.1,1.2-0.6,1.5-1.2l12-27.9c0.3-0.7,0.2-1.5-0.3-2l-11.8-14.9l19.3-12l44.4,43.7l0,0.1l-30.9,40.4
			l-23.4,20.8l-106.2,10.2l45.5-57.9l21.6-26.2L575.7,283.7z M546.5,254.4l-19.1,23.1l-8.6-56.4L546.5,254.4z M514.1,217.1l9.4,61.8
			l-76.2-35.1L514.1,217.1z M522.9,283l-44.6,56.7l-32.6-92.2L522.9,283z M474.8,341.8h-97.2l64.1-93.8L474.8,341.8z M439.7,243.9
			l-64.2,94l-11-167.9L439.7,243.9z M371.7,341.2l-128.7-31.9L360.5,170L371.7,341.2z M242.4,303.7l21-137.1l94.5,0.3L242.4,303.7z
			 M282,147.7c0.2,0.2,0.5,0.4,0.9,0.4l61.9,14.7l-83-0.3l-91.1-9.8l59.2-50.6L282,147.7z M148.7,101.5h75.8l-57.8,49.3L148.7,101.5
			z M167.4,156.4l87.1,9.4L153.4,215L167.4,156.4z M115.2,170.6l47.9-13.5L149,216.2l-49.7-11.9L115.2,170.6z M110.7,288.3
			l-26.8-29.2L94.3,215l3.3-6.9l49.9,12L110.7,288.3z M197.9,272.9c-0.3-0.2-0.6-0.4-1-0.4l-44.1-6.7c-0.4-0.1-0.9,0-1.3,0.2
			l-35.3,20.5L151,222l59.4,61.4L197.9,272.9z M237.9,306.2l-84.1-86.9L259.1,168L237.9,306.2z M243.9,376.5l-2.5-63.4l128,31.7
			L277,417.1L243.9,376.5z M236.9,478.5l39.4-54.7l48.1,97.2l-89.3-40.1L236.9,478.5z M217.3,550.2v-45.5l15.5-20.6l92.2,41.5
			l-82.5,66.3L217.3,550.2z M301.3,711.5l-25.8-17.9l-13.1-21c-0.1-0.1-0.2-0.2-0.3-0.4L244,654.1v-57.3h90.1L301.3,711.5z M355,745
			l-45.1-27.6l-2.1-1.5l49.6-7.9L355,745z M305.3,712.2L338,597.8l59.7,33.6L366,668.3c-0.2,0.3-0.4,0.6-0.4,0.9l-7.7,34.7
			L305.3,712.2z M380.2,769l-21.3-21.3l2.4-39l17.9,7.8l15.1,50.1L380.2,769z M398.2,766l-15-49.8l15.8-7.3c0.3-0.1,0.5-0.3,0.7-0.6
			l5.8-7.4v47.6c0,0,0,0,0,0c0,0.1,0,0.2,0.1,0.3c0,0.2,0.1,0.4,0.2,0.6c0,0,0,0.1,0,0.1c0,0.1,0.1,0.1,0.1,0.2
			c0.1,0.2,0.2,0.3,0.4,0.4c0.1,0.1,0.2,0.1,0.3,0.2c0.1,0.1,0.3,0.2,0.5,0.2c0.1,0,0.1,0.1,0.2,0.1l32.1,5.5l-12.3,5.3L398.2,766z
			 M440.7,822.9l-16.4-15.7l5.1-42.7l13.4-5.8l-6.5,18.4c-0.2,0.6-0.1,1.3,0.2,1.8l10.4,15.6l1.2,18.7L440.7,822.9z M452.1,811.4
			l-1-15.6h14.4l10.2,10.2L452.1,811.4z M590.3,979.3L562,934.5l90.2-41.9L590.3,979.3z M657.1,892.6l10.9,59.8l-72.4,26.4
			L657.1,892.6z M564.2,929.1l22.1-36.5l62-2.5L564.2,929.1z M581.5,889.4L510.4,906l12.9-87.4L581.5,889.4z M526.7,816.4l54.5,6
			l1.8,62.5L526.7,816.4z M581,893.6l-22.6,37.4l-44.4-21.8L581,893.6z M559.5,938l27.7,43.9l-53.3,19.4L559.5,938z M588.2,985.8
			v55.3l-53.4-35.8L588.2,985.8z M589.3,1121.1l19.2,50.2l-63-19L589.3,1121.1z M588.2,1113.9l-52.7-40.6l52.7-25.3V1113.9z
			 M592.2,1053.2l35.2,69.3l-35.2-6.3V1053.2z M592.2,986.6l93.8,60l-93.8-3.6V986.6z M594.7,983.4l74.1-27.1l21.3,88.1L594.7,983.4
			z M660.5,888.7l73.8-40l-62.9,99.7L660.5,888.7z M687.7,837.4l46.1,6.9l-70.6,38.3L687.7,837.4z M683.5,836.7l-25.1,46.3l-22.7-55
			L683.5,836.7z M655.3,885.7l-66.1,2.7l42.9-59L655.3,885.7z M629,826.8L587,884.7l-1.8-62l42.4,3.8L629,826.8z M622.4,822l-35-3.1
			l15.1-16.2L622.4,822z M577.7,778.5l22,21.4l-16.3,17.5l-26.7-38.1L577.7,778.5z M578.9,818l-52.7-5.8l27.7-30L578.9,818z
			 M551,779.5l-28.4,30.8L509.4,781L551,779.5z M481.5,808.1l24.2-25.5l13.7,30.4l-43.7,26.2L481.5,808.1z M519.4,817.7l-12.5,84.6
			l-31.3-58.4L519.4,817.7z M473.6,848.6l31.2,58.3l-47.9,4.8L473.6,848.6z M457.2,915.7l47.7-4.7l-24,58L457.2,915.7z M509.1,911.4
			l45.6,22.3l-69.7,36L509.1,911.4z M529.4,1001.8L485,974.2l70.2-36.3L529.4,1001.8z M532.5,1008.6l53.7,36l-52.5,25.2
			L532.5,1008.6z M534.3,1077.3l52.6,40.5l-44.2,31.5L534.3,1077.3z M592,1216.8l-51.1-9.5l1.9-49L592,1216.8z M540.8,1211.3
			l50.7,9.4l-52.2,30.2L540.8,1211.3z M594.9,1223.4l-3.5,48.3l-49.5-17.7L594.9,1223.4z M583,1296.3l-37.9-36.8l45.5,16.2
			L583,1296.3z M632,1309.3l-45.5-10.8l7.6-20.6L632,1309.3z M610.8,1241.2l-15,25l3-41L610.8,1241.2z M596.4,1215.7l-49.4-58.8
			l62.4,18.8L596.4,1215.7z M612.6,1170.9l-19.3-50.3l36.3,6.5l9.6,19L612.6,1170.9z M649.2,1136.8l-6.9,6.4l-7.8-15.3l19.7,3.5
			L649.2,1136.8z M657.5,1128l-25.2-4.5l-37.6-74.2l93.9,45.6L657.5,1128z M690,1091.1l-90.4-43.9l91.5,3.6L690,1091.1z
			 M694.7,1046.2l-19.8-82l27.8,41.7c0,0.1,0.1,0.1,0.1,0.1c0,0,0,0.1,0.1,0.1c0,0,0.1,0,0.1,0.1c0,0,0.1,0.1,0.1,0.1l32.8,24.5
			L694.7,1046.2z M674,955.8l77.1,1.5l-46.5,44.4L674,955.8z M738.7,1028l-31.3-23.4l45.4-43.3L738.7,1028z M673.8,951.8l65-102.9
			l14.9,104.4L673.8,951.8z M757.5,951.2l-13.8-96.6l37.9,73.6L757.5,951.2z M782.1,920.4l-38.3-74.2l38.3,9.3V920.4z"/>
		<path fill="#002932" d="M525.2,166.4c0.3,0.1,0.6,0.2,0.9,0.2c0.5,0,0.9-0.2,1.3-0.5l23-19c0.5-0.4,0.7-0.9,0.7-1.5
			c0-0.6-0.3-1.2-0.7-1.5l-23-19c-0.6-0.5-1.4-0.6-2.1-0.3c-0.7,0.3-1.1,1-1.1,1.8v38.1C524,165.3,524.5,166.1,525.2,166.4z
			 M528,130.8l17.9,14.8L528,160.3V130.8z"/>
		<path fill="#002932" d="M897.6,356.6l23-13c0.6-0.3,0.9-0.9,1-1.5l2-20c0.1-1.1-0.7-2.1-1.8-2.2l-37.9-4.6l9.3-14.3
			c0.2-0.3,0.3-0.7,0.3-1.1v-24c0-0.2,0-0.4-0.1-0.6l-5.9-18.7l0.9-17.8l43.4-34.5c0.2-0.1,0.3-0.3,0.4-0.4l38.1-56.4
			c0.4-0.6,0.5-1.4,0.1-2.1c-0.3-0.7-1-1.1-1.8-1.1l-54.5-0.6l16.4-9c0.6-0.3,1-1,1-1.6c0-0.7-0.3-1.4-0.8-1.7l-31-21.9
			c-0.3-0.2-0.7-0.4-1.2-0.4h-71.1c0,0-0.1,0-0.1,0c-0.2,0-0.3,0-0.5,0.1c-0.1,0-0.1,0-0.2,0.1c-0.2,0.1-0.4,0.2-0.5,0.4
			c0,0,0,0,0,0l-32.3,32.7l-14.7-23.9c-0.4-0.6-1-1-1.7-1h-44.1V108c0-0.6-0.3-1.2-0.8-1.6l-25-18.5c-0.3-0.2-0.7-0.4-1.1-0.4
			l-41.5-2l-17.6-10.7c-0.9-0.6-2.1-0.3-2.7,0.6l-22,32c-0.2,0.3-0.4,0.7-0.4,1.1v22.7l-31.4,6.4c-0.7,0.1-1.3,0.6-1.5,1.3
			c-0.2,0.7-0.1,1.4,0.4,1.9l21,25c0.4,0.5,0.9,0.7,1.5,0.7h23c0,0,0,0,0,0c0.1,0,0.1,0,0.2,0c0.2,0,0.3,0,0.5-0.1c0,0,0,0,0,0
			c0,0,0,0,0.1,0c0.2-0.1,0.3-0.1,0.5-0.3l24.9-19l38.6-25.7h25.4L676.1,158c-0.5,0.4-0.8,0.9-0.8,1.5l-1,24.7c0,0.1,0,0.2,0.1,0.3
			c0,0.1,0,0.3,0,0.4c0,0,0,0,0,0c0,0.1,0.1,0.2,0.2,0.3c0.1,0.1,0.1,0.3,0.2,0.4c0,0,0,0,0,0c0.1,0.1,0.2,0.1,0.2,0.2
			c0.1,0.1,0.2,0.2,0.4,0.3c0.1,0,0.2,0.1,0.3,0.1c0.1,0,0.3,0.1,0.4,0.1c0,0,0.1,0,0.1,0h26.5l33.9,17.7l13.6,43.6l-19.8,53.4
			c0,0,0,0,0,0c0,0,0,0,0,0c0,0.1,0,0.1,0,0.2c0,0.1-0.1,0.3-0.1,0.4l-1,42.1c0,0.5,0.2,1,0.6,1.4l42.1,44.1
			c0.4,0.4,0.9,0.6,1.4,0.6c0.2,0,0.4,0,0.6-0.1c0.7-0.2,1.3-0.8,1.4-1.5c0.2-1.2,5.8-29,6.5-32.9c1.5-2.5,16.8-15.6,30.7-26.9
			l46-31.3l8.7,5.5l-4.7,19.6c0,0.1,0,0.1,0,0.2c0,0.2,0,0.3,0,0.5c0,0.1,0,0.2,0.1,0.4c0,0.1,0,0.1,0,0.2c0,0.1,0.1,0.2,0.2,0.3
			c0,0,0,0.1,0,0.1l7,10c0.1,0.1,0.2,0.3,0.3,0.4l25,22C895.9,356.9,896.8,357,897.6,356.6z M964.9,148.2l-35.8,53.1l-39.4,31.4
			l18.5-85L964.9,148.2z M897.9,113l27.9,19.7l-19.4,10.7L837.1,113H897.9z M904.3,146.7l-18.4,84.7L831.5,115L904.3,146.7z
			 M826.9,114.5L880,228.4l-83.8-82.9L826.9,114.5z M794.2,149.1L882,236l-126.6,9.4L794.2,149.1z M613.1,162.6l-18.3-21.7l28-5.7
			l9.5,27.4H613.1z M636.2,161.3l-8.7-25.2l28.6,10.1L636.2,161.3z M658.4,142.8l-32.2-11.3v-22.3l20.6-30l15.4,9.4L658.4,142.8z
			 M699.3,117.5c-0.4,0-0.8,0.1-1.1,0.3l-35.7,23.8l3.6-52.1l39.5,1.9l23.7,17.6v8.5H699.3z M679.2,160.6l52.8-39.1h44.3l14.1,22.9
			l-112,37L679.2,160.6z M740.3,202c-0.2-0.5-0.5-0.9-1-1.2l-35-18.4c-0.3-0.2-0.6-0.2-0.9-0.2h-14.6L790,148.8l-37.4,92.9
			L740.3,202z M753,251.8l53.2,71.2l-71.2-22.5L753,251.8z M777.9,354.5c-0.4,2.3-4.1,21-5.7,29.2L733.4,343l0.9-38.6l73,23.1
			C788.2,343.1,778.3,352.1,777.9,354.5z M811.9,324.1l-53.4-71.5l95.9,42.5L811.9,324.1z M857.6,292.1l-97.1-43.1l122.7-9.2
			L857.6,292.1z M870.6,300.1l-9.5-6l22.9-46.7l-0.5,9.3c0,0.2,0,0.5,0.1,0.7l5.9,18.7v23.1l-10.3,16l-11.9,4.5l4.1-17.4
			C871.7,301.4,871.3,300.5,870.6,300.1z M867.7,323.8l13.1-4.9l38.6,4.7l-1.7,17l-20.9,11.8L873,331.5L867.7,323.8z"/>
		<path fill="#002932" d="M510,708.6c0.1-0.7-0.2-1.4-0.8-1.8c-18.7-14.2-29.4-21.4-31.6-21.4c-2.8,0-22.1,5.9-28,7.8
			c-0.7,0.2-1.2,0.8-1.4,1.4c-0.2,0.7,0,1.4,0.5,1.9l27.4,26.7c0.4,0.4,0.9,0.6,1.4,0.6c0.3,0,0.5-0.1,0.8-0.2l30.4-13.4
			C509.5,709.9,509.9,709.3,510,708.6z M478.1,719.3l-24-23.4c10.6-3.3,21.4-6.4,23.4-6.6c2.4,0.9,14.8,9.7,26.6,18.6L478.1,719.3z"
			/>
		<path fill="#002932" d="M508,736.4c0.1,0,0.1,0,0.2,0l46.1-5c0.8-0.1,1.5-0.6,1.7-1.4c0.2-0.8,0-1.6-0.6-2.1l-28-24.9
			c-0.4-0.4-1-0.6-1.6-0.5c-0.6,0.1-1.1,0.4-1.4,0.9l-18,29.9c-0.4,0.7-0.4,1.5,0,2.1C506.7,736,507.3,736.4,508,736.4z
			 M526.5,707.6l22.9,20.3l-37.5,4.1L526.5,707.6z"/>
		<path fill="#002932" d="M1085.1,198.1c0.4,0.3,0.8,0.4,1.2,0.4c0.5,0,0.9-0.2,1.3-0.5l46.4-40.6c0.7-0.6,0.9-1.6,0.5-2.4
			c-0.4-0.8-1.3-1.3-2.2-1.1l-44.1,8.6c-0.1,0-0.1,0.1-0.2,0.1c-0.1,0-0.2,0.1-0.3,0.1c0,0-0.1,0-0.1,0.1l-24.8,14.1
			c-0.6,0.3-1,0.9-1,1.6c-0.1,0.7,0.2,1.3,0.8,1.7L1085.1,198.1z M1125.8,159.3l-21.1,18.4l-12.1-12L1125.8,159.3z M1088.3,167
			l13.5,13.4l-15.5,13.6l-18.9-15L1088.3,167z"/>
		<path fill="#002932" d="M1287.4,261.8c0.4,0.4,0.9,0.6,1.4,0.6c0.2,0,0.4,0,0.6-0.1c0.7-0.2,1.2-0.9,1.4-1.6l7.2-48.7l9.6-9h17.2
			c0.6,0,1.1-0.2,1.5-0.6l19.4-20.5c0.4-0.4,0.6-1,0.5-1.5c0-0.6-0.3-1.1-0.8-1.4l-20.7-16c-0.6-0.4-1.3-0.5-2-0.3
			c-0.7,0.3-1.1,0.9-1.2,1.6l-2.5,20.3l-18.6,3.7c-0.2,0-0.4,0.1-0.5,0.2c0,0,0,0,0,0c0,0,0,0-0.1,0.1c-0.1,0-0.2,0.1-0.2,0.1
			l-26.7,22.2c-0.1,0-0.1,0.1-0.1,0.2c0,0-0.1,0.1-0.1,0.1c-0.1,0.2-0.3,0.4-0.3,0.6c0,0,0,0,0,0c-0.1,0.2-0.1,0.5-0.1,0.7
			c0,0,0,0.1,0,0.1c0,0,0,0.1,0,0.1c0,0.1,0,0.1,0,0.2l2.5,11.6l-10,11.9c-0.7,0.8-0.6,2,0.1,2.7L1287.4,261.8z M1321.2,188.2
			c0.8-0.2,1.5-0.9,1.6-1.7l2.2-18.3l16.2,12.5L1324,199h-16l-4.1-7.3L1321.2,188.2z M1300.2,193.4l4.1,7.2l-9,8.4l-15.1,1
			L1300.2,193.4z M1293.8,213.1l-2.4,16.1l-12.9-5.7l-2-9.3L1293.8,213.1z M1277.3,227.4l13.4,6l-3.4,22.8l-18.6-18.6L1277.3,227.4z
			"/>
		<path fill="#002932" d="M1675.4,796.1c0,0.2,0.1,0.4,0.2,0.6c0,0,0,0,0,0c0.1,0.2,0.2,0.4,0.4,0.5c0,0,0,0,0,0l16.6,16.6l-3.1,17
			c0,0,0,0,0,0c0,0,0,0,0,0.1c0,0.2,0,0.4,0,0.7c0,0,0,0.1,0,0.1c0,0,0,0,0,0.1c0.1,0.2,0.1,0.4,0.2,0.5c0,0,0,0,0,0
			c0.1,0.1,0.2,0.3,0.3,0.4l33.4,30c0.6,0.5,1.4,0.7,2.1,0.3c0.7-0.3,1.2-1,1.2-1.8l0.7-38.1c0-0.1,0-0.2,0-0.3c0-0.1,0-0.2,0-0.2
			c0,0,0-0.1-0.1-0.1c0-0.1-0.1-0.3-0.2-0.4c-0.1-0.1-0.1-0.2-0.2-0.3c0,0,0-0.1-0.1-0.1l-31.5-34.8v-25l30.1,25.3
			c0.7,0.6,1.8,0.6,2.6,0l28.7-23.4c0,0,0,0,0,0c0.1-0.1,0.1-0.1,0.2-0.2c0.1-0.1,0.2-0.2,0.3-0.3c0-0.1,0.1-0.2,0.1-0.2
			c0.1-0.1,0.1-0.3,0.1-0.4c0,0,0-0.1,0-0.1c0,0,0-0.1,0-0.1c0-0.2,0-0.3-0.1-0.5c0-0.1,0-0.2-0.1-0.2c0,0,0-0.1,0-0.1l-16-36.7
			c-0.1-0.3-0.4-0.6-0.6-0.8l-21-15.6l60.9-37.2c0.1-0.1,0.3-0.2,0.4-0.3c0,0,0,0,0,0c0,0,0,0,0,0c0.1-0.1,0.3-0.3,0.3-0.5
			l30.7-64.7c0,0,0,0,0,0l0,0c0.1-0.2,0.2-0.4,0.2-0.7c0-0.1,0-0.1,0-0.2c0-0.2,0-0.4-0.1-0.5c0,0,0-0.1,0-0.1c0,0,0-0.1-0.1-0.1
			c-0.1-0.2-0.2-0.3-0.3-0.5c0,0-0.1-0.1-0.1-0.1c0,0,0,0,0,0l-33.1-33.1l14.8-34.1c0.2-0.5,0.2-1.2-0.1-1.7c-0.3-0.5-0.8-0.9-1.3-1
			l-26.7-5.9l14-15.6l29.5,17.6l21.1,36.9c0.4,0.7,1.2,1.1,2,1c0.8-0.1,1.5-0.7,1.7-1.5l8-34.7c0.1-0.6,0-1.3-0.5-1.8l-17.4-18.7
			l3.2-33.2l21.6-23.5c0.2-0.3,0.4-0.6,0.5-0.9l8.7-39.4c0-0.2,0.1-0.4,0-0.6l-2-33.4c0,0,0-0.1,0-0.1c0-0.3-0.1-0.5-0.2-0.7
			c0,0,0-0.1,0-0.1c-0.1-0.2-0.2-0.3-0.4-0.5c-0.1,0-0.1-0.1-0.2-0.1c0,0,0-0.1-0.1-0.1l-50-32.5l23.1-55.2l51.5-28.4
			c0,0,0.1-0.1,0.1-0.1c0.1,0,0.1-0.1,0.2-0.2c0.1-0.1,0.2-0.2,0.3-0.3c0.1-0.1,0.1-0.1,0.1-0.2c0.1-0.2,0.1-0.3,0.2-0.5
			c0,0,0-0.1,0-0.1c0,0,0,0,0,0c0-0.2,0-0.5,0-0.7l-5.7-26.8l47.5-37l3,41.4l-18,79.2c-0.1,0.6,0,1.2,0.4,1.7l36.1,44.7
			c0.5,0.6,1.3,0.9,2.1,0.7c0.8-0.2,1.3-0.8,1.5-1.6l10.7-63.4c0.1-0.5,0-1-0.3-1.4l-18.9-31.3l8.3-28.2l33.1-42.4
			c0.1-0.1,0.1-0.2,0.2-0.3c0,0,0.1-0.1,0.1-0.1c0,0,0,0,0,0l10.7-26.7c0.2-0.5,0.2-1,0-1.5l-10.2-25.5l14.5-15.1l23.8,1.9
			c0,0,0.1,0,0.1,0c0,0,0.1,0,0.1,0c0.1,0,0.2,0,0.3,0c0.1,0,0.2,0,0.2,0c0,0,0,0,0.1,0c0,0,0.1,0,0.1,0c0.2-0.1,0.4-0.2,0.5-0.3
			c0,0,0.1-0.1,0.1-0.1c0.2-0.1,0.3-0.3,0.4-0.5c0,0,0,0,0-0.1c0,0,0,0,0,0l13.4-24.7c0.5-0.9,0.2-2.1-0.7-2.6l-24.7-16
			c0,0,0,0-0.1,0c0,0-0.1,0-0.2-0.1c-0.2-0.1-0.3-0.1-0.5-0.2c-0.1,0-0.1,0-0.2,0c-0.1,0-0.1,0-0.2,0l-36.5,0l-84.1-8
			c0,0-0.1,0-0.1,0c-0.1,0-0.1,0-0.2,0c-0.1,0-0.2,0-0.4,0.1c-0.1,0-0.1,0-0.2,0.1c-0.1,0.1-0.3,0.1-0.4,0.2c0,0-0.1,0-0.1,0.1
			c0,0,0,0,0,0c-0.1,0.1-0.3,0.2-0.4,0.4l-29.7,38.7l-24.5-13.8c-0.1-0.1-0.3-0.1-0.4-0.1c-0.1,0-0.2-0.1-0.2-0.1
			c-0.2,0-0.3,0-0.5,0c-0.1,0-0.2,0-0.2,0c0,0,0,0,0,0l-149.5,34c-0.9,0.2-1.5,1-1.6,1.8l-2.1,38.9l-10.7-29.5c0,0,0,0,0,0
			c-0.1-0.2-0.2-0.4-0.3-0.5c0,0,0,0,0,0c0,0,0,0-0.1,0c-0.1-0.1-0.2-0.3-0.4-0.4c0,0-0.1-0.1-0.2-0.1c-0.1-0.1-0.2-0.1-0.4-0.2
			c-0.1,0-0.1,0-0.2,0c-0.1,0-0.3-0.1-0.4-0.1c0,0,0,0-0.1,0l-103.5-0.7l-5.5-13.5c-0.3-0.8-1-1.2-1.9-1.2h-60.1
			c-0.4,0-0.8,0.1-1.1,0.4l-67,46.8c0,0,0,0-0.1,0c0,0-0.1,0.1-0.1,0.1l-32.3,22.5c-0.7,0.5-1,1.3-0.8,2.1l2.9,13.4l-17.4,3.6
			c-0.6,0.1-1.2,0.6-1.4,1.1c-0.3,0.6-0.2,1.3,0.1,1.8l25.5,45l-9.7,16.2l-41.7-66c-0.4-0.7-1.2-1-1.9-0.9c-0.8,0.1-1.4,0.6-1.7,1.4
			l-7.3,22.7c-0.2,0.6-0.1,1.2,0.3,1.8l21.4,30.6l-134.1,12.4c-0.1,0-0.1,0-0.2,0c-0.1,0-0.2,0-0.3,0.1c-0.1,0-0.3,0.1-0.4,0.2
			c-0.1,0-0.2,0.1-0.2,0.1c-0.1,0.1-0.3,0.3-0.4,0.4c0,0-0.1,0.1-0.1,0.1c0,0,0,0,0,0c-0.1,0.2-0.2,0.4-0.3,0.7l-4.5,25.6
			l-21.3-30.6c-0.3-0.5-0.8-0.8-1.4-0.8l-40.1-4.5c0,0-0.1,0-0.1,0c-0.2,0-0.4,0-0.5,0c0,0-0.1,0-0.1,0l-59,16.7
			c-0.1,0-0.1,0.1-0.2,0.1c-0.1,0-0.2,0-0.2,0.1c0,0-0.1,0.1-0.1,0.1c0,0-0.1,0-0.1,0.1l-34.5,25.4c-0.4,0.3-0.7,0.8-0.8,1.4
			c-0.1,0.5,0.1,1.1,0.4,1.5l14.5,17.5l-42.7,24.8c-0.6,0.3-0.9,0.9-1,1.5l-4,37.4c-0.1,0.6,0.1,1.1,0.5,1.6
			c0.4,0.4,0.9,0.7,1.5,0.7h45.6l13.4,23c0.3,0.6,1,1,1.6,1c0.7,0,1.3-0.3,1.7-0.8l27.4-38.7c0.4-0.5,0.5-1.3,0.2-1.9l-10.3-26.3
			l21-28.7l2,17.3l-9,16.1c-0.4,0.8-0.3,1.7,0.3,2.4l13.8,14.5l10,18.2l-7.9,14.5l-49.5,26.7L1063,434c-0.7-0.2-1.4,0-1.9,0.5
			l-23.3,22.6l-21.1,18.5l-6.9-3l13.4-14c0.6-0.6,0.7-1.6,0.3-2.4l-15.4-26.7c0,0,0,0,0-0.1l0-0.1l-22.7-32.7c-0.4-0.6-1.2-1-2-0.8
			c-0.8,0.1-1.4,0.7-1.6,1.5l-8.4,31.2l-16.6,8.3c-0.2,0.1-0.3,0.2-0.4,0.3l-20.7,18.7c-0.7,0.7-0.9,1.7-0.3,2.6l9.3,14.7
			c0,0,0.1,0,0.1,0.1c0.2,0.2,0.3,0.4,0.5,0.5c0,0,0,0,0,0c0.2,0.1,0.5,0.2,0.7,0.3c0,0,0.1,0,0.1,0l21.7,2.6l14.6,14.3l22,19.4v22
			l-52.9,5.2c-0.7,0.1-1.4,0.5-1.7,1.2c-0.3,0.7-0.2,1.5,0.3,2l42.7,50.7c0.4,0.5,1,0.7,1.6,0.7c0.6,0,1.2-0.3,1.5-0.8l21-28.2
			l54.7-20.6l25.2,36.8c0.6,0.9,1.8,1.1,2.7,0.6l25-14.7l46.4,30c0.1,0,0.1,0.1,0.2,0.1c0.1,0,0.1,0.1,0.2,0.1c0,0,0.1,0,0.1,0
			c0.1,0,0.3,0.1,0.4,0.1c0.1,0,0.1,0,0.2,0c0,0,0,0,0.1,0c0,0,0.1,0,0.1,0l35.3-3.3l18.7,13.7l1.7,17l-61.7,3.2l-13.4-15.9
			c-0.4-0.4-0.9-0.7-1.5-0.7c0,0,0,0,0,0c-0.6,0-1.1,0.3-1.5,0.7l-20.7,23.8l-20.5-18.6c-0.1-0.1-0.2-0.1-0.3-0.2
			c-0.1,0-0.1-0.1-0.2-0.1c0,0,0,0,0,0c-0.2-0.1-0.4-0.1-0.6-0.2c0,0-0.1,0-0.1,0c0,0,0,0,0,0l-28.4-0.6l-5-24.5
			c-0.2-0.9-1-1.6-2-1.6h-38c0,0,0,0,0,0h0c0,0-0.1,0-0.1,0c-0.2,0-0.3,0-0.5,0.1c-0.1,0-0.1,0-0.2,0.1c-0.1,0-0.2,0.1-0.2,0.1
			c0,0-0.1,0-0.1,0.1c0,0-0.1,0-0.1,0l-21.1,14.5l-59.8,19.3c-0.1,0-0.1,0.1-0.2,0.1c-0.1,0.1-0.3,0.1-0.4,0.2c0,0-0.1,0-0.1,0.1
			L915,654.1c0,0-0.1,0.1-0.1,0.1c-0.1,0.1-0.2,0.2-0.2,0.3c0,0.1-0.1,0.1-0.1,0.2l-26,50.7c-0.2,0.3-0.2,0.7-0.2,1l2,48.1
			c0,0,0,0,0,0c0,0.1,0,0.3,0.1,0.4c0,0,0,0.1,0,0.1c0,0,0,0,0,0c0.1,0.2,0.1,0.3,0.2,0.5c0,0,0,0,0,0l29.4,45.4
			c0.1,0.2,0.3,0.4,0.4,0.5l32.7,25.6c0,0,0,0,0,0c0,0,0,0,0,0c0.1,0.1,0.2,0.1,0.2,0.1c0.1,0,0.2,0.1,0.3,0.1c0.1,0,0.2,0,0.3,0.1
			c0.1,0,0.1,0,0.2,0.1l64.2,4.5h49.7l-13.5,31.3c0,0,0,0.1,0,0.1c0,0.1,0,0.1-0.1,0.2c0,0.2-0.1,0.3-0.1,0.5c0,0,0,0.1,0,0.1
			c0,0,0,0,0,0.1c0,0.2,0.1,0.4,0.2,0.6c0,0,0,0.1,0,0.1c0.1,0.2,0.2,0.4,0.4,0.5l54.4,53.1l-14.7,30.1c-0.1,0.2-0.1,0.3-0.2,0.5
			l-6,33.6c0,0,0,0.1,0,0.1c0,0,0,0,0,0.1c0,0.1,0,0.1,0,0.2c0,0.1,0,0.2,0,0.3l10,61.9c0,0,0,0,0,0c0,0.1,0,0.1,0.1,0.2
			c0,0.1,0.1,0.2,0.1,0.3c0,0,0,0.1,0,0.1c0,0.1,0.1,0.1,0.2,0.2c0,0,0.1,0.1,0.1,0.1l26.2,28.8l0.7,43c0,0.6,0.3,1.1,0.7,1.5
			c0.4,0.3,0.8,0.5,1.3,0.5c0.1,0,0.2,0,0.4,0l64.1-11.7c0,0,0.1,0,0.1-0.1c0.1,0,0.3-0.1,0.4-0.2c0.1,0,0.2-0.1,0.3-0.2
			c0,0,0.1,0,0.1-0.1c0.1-0.1,0.2-0.2,0.3-0.3c0,0,0,0,0.1-0.1l51.4-74.8c0,0,0-0.1,0.1-0.1c0-0.1,0.1-0.1,0.1-0.2
			c0-0.1,0-0.1,0.1-0.2c0,0,0-0.1,0.1-0.1l7.9-30.3l31.8-40.9c0-0.1,0.1-0.1,0.1-0.2c0,0,0.1-0.1,0.1-0.1c0,0,0,0,0-0.1
			c0.1-0.2,0.2-0.4,0.2-0.6l13.3-87.1l18.4-23.6c0,0,0,0,0,0l0,0c0.1-0.1,0.2-0.3,0.3-0.4l27.5-62.9c0,0,0,0,0,0l4.3-10l23.5-15.7
			c0.1,0,0.1-0.1,0.2-0.2c0.1-0.1,0.1-0.1,0.2-0.2c0,0,0.1-0.1,0.1-0.1l45.4-56.1c0,0,0-0.1,0.1-0.1c0,0,0.1-0.1,0.1-0.1
			c0.1-0.2,0.2-0.4,0.3-0.6c0,0,0,0,0,0c0-0.2,0-0.4,0-0.7c0,0,0-0.1,0-0.1c0,0,0-0.1,0-0.1c0-0.1-0.1-0.1-0.1-0.2
			c-0.1-0.1-0.1-0.3-0.2-0.4c0-0.1-0.1-0.1-0.1-0.1c-0.1-0.1-0.1-0.2-0.2-0.2c-0.2-0.1-0.3-0.2-0.5-0.3c-0.1,0-0.1-0.1-0.2-0.1
			l-53-17.9l-37.3-34.5l14.5-7.4l22.3,23.6c0,0,0.1,0.1,0.1,0.1c0,0,0,0.1,0.1,0.1c0,0,0.1,0,0.2,0.1c0.1,0.1,0.3,0.2,0.4,0.2
			c0.1,0,0.2,0.1,0.3,0.1c0,0,0.1,0,0.1,0l123.2,15.8l3.3,70.4c0,0,0,0.1,0,0.1c0,0,0,0.1,0,0.1c0,0.1,0.1,0.2,0.1,0.2
			c0,0.1,0.1,0.2,0.1,0.3c0.1,0.1,0.1,0.2,0.2,0.3c0,0.1,0.1,0.1,0.1,0.2l46.1,47.4c0.4,0.4,0.9,0.6,1.5,0.6c0.6,0,1.1-0.3,1.5-0.7
			l16.7-19.4c0.3-0.3,0.5-0.8,0.5-1.2l2-37.8l58.7-48.4l48.3,46.4L1675.4,796.1z M1672,743.1l19.3,15.6v27.8l-12.4,6.2L1672,743.1z
			 M1722.8,856.8l-27.3-24.5l27.8-6.5L1722.8,856.8z M1721.7,822l-27.8,6.5l2.8-15c0.1-0.6-0.1-1.3-0.6-1.8l-15.4-15.4l12.2-6.1
			L1721.7,822z M1692.6,754.6l-19.9-16l38.6-24.8L1692.6,754.6z M1726.8,783.2l-27.4-23l50.9,3.8L1726.8,783.2z M1737.8,727
			l14.5,33.2l-55.9-4.2l20.5-44.5L1737.8,727z M1719.3,704l19.2-70l37.7,35.3L1719.3,704z M1417.8,447.1l-149.1-51.4l25.1-65.4
			L1417.8,447.1z M1296.6,327.5l72-29.5l52.6,146.8L1296.6,327.5z M1420.7,452.3l-84.5,40.6l-64.9-92L1420.7,452.3z M1265.8,392.2
			l-40.7-72.9l65.1,9.1L1265.8,392.2z M1266.2,400.5l65.9,93.5l-92.3,18.1H1206c-0.4,0-0.8,0.1-1.1,0.3l-13.6,9.3L1266.2,400.5z
			 M1327.5,499l-64.2,48.9l-20-32.3L1327.5,499z M1328.3,503.4l-49.2,81.1l-13.9-33L1328.3,503.4z M1275.8,586.9l-61.4,1.2
			l47.5-34.2L1275.8,586.9z M1278.8,591.4l56.5,44l-98.3-11.7L1278.8,591.4z M1335.5,499.3l66.1,110.2l-119.6-22L1335.5,499.3z
			 M1338.4,496.2l85.1-40.9l-19.1,150.8L1338.4,496.2z M1427.7,454.3l125.8,22.3l-145.2,130.5L1427.7,454.3z M1722.1,339.4
			l52.3-89.2l25.1,94.2L1722.1,339.4z M1798.2,348.2l-63.1,76.4l-13.9-81.3L1798.2,348.2z M1773.4,241.6l-89-54.4l94.2-6.1
			L1773.4,241.6z M1782.6,182.3l83.7,48.9l-88.9,11.6L1782.6,182.3z M1772.4,245.7l-53,90.3l-38.2-146.1L1772.4,245.7z
			 M1731.5,427.7l-98.2-52.7l-21.1-114.4l104.7,81.7L1731.5,427.7z M1630.4,381.2l14,75.8l-81.8,15.5L1630.4,381.2z M1558.9,470.6
			l-32.2-148.3l101.8,54.7L1558.9,470.6z M1645.1,460.9l12.2,66.1l-93.5-50.7L1645.1,460.9z M1661.7,528.7l-12.2-66.1l105.1,64.3
			L1661.7,528.7z M1750.4,531L1596,591.8l64.8-59.1L1750.4,531z M1648.2,455.9l-14-75.9l93.5,50.2L1648.2,455.9z M1628.8,372.5
			l-101.2-54.3l80.3-59L1628.8,372.5z M1525.9,314.4l4.4-135.8l75.8,76.8c0,0,0,0.1,0,0.1L1525.9,314.4z M1555.3,472.9l-125.8-22.3
			l93.3-127.3L1555.3,472.9z M1555,480.6l-15,97.3l-127.2,30.6L1555,480.6z M1542.8,582l40,16.3l-85.9,72.6L1542.8,582z M1544,578.2
			l14.2-92.4l25.5,108.5L1544,578.2z M1560.8,479.2l95.7,51.9l-68.8,62.7L1560.8,479.2z M1750,535.4l-98.4,79.2l-58.8-17.3
			L1750,535.4z M1758.2,534l-22.3,94l-79.1-12.4L1758.2,534z M1778.9,666.3l-37.6-35.3l65.1-22.7L1778.9,666.3z M1806.5,604
			l-64.2,22.4l34.2-52.4L1806.5,604z M1788.7,536.9l-14.3,33l-32.4,49.7l20.9-88.4L1788.7,536.9z M1761.1,526.2l-109.7-67.1
			l80.4-26.1l44.5,76.1L1761.1,526.2z M1737.9,435.4L1821,477l-41.6,29.5L1737.9,435.4z M1837.4,531.3l-6.6,28.7l-18.8-32.9
			c-0.2-0.3-0.4-0.6-0.7-0.7l-28.7-17.1l40-28.4l-2.9,30.4c-0.1,0.6,0.1,1.1,0.5,1.6L1837.4,531.3z M1853.6,413.1l-8.5,38.6
			l-15.8,17.2l23-77.6L1853.6,413.1z M1823.7,473.8l-86.1-43l112.9-47.4L1823.7,473.8z M1849.3,379.5l-109.9,46.1l63.1-76.5
			L1849.3,379.5z M1825.3,287.3c-0.4,0.2-0.7,0.6-0.9,1l-21.8,52l-24.7-92.9l94.3,14L1825.3,287.3z M1875.7,258l-86.1-12.8
			l81.1-10.6L1875.7,258z M1873.8,228.6l-14.6-104.9l61.6,68.3L1873.8,228.6z M1943.5,235.8c-0.2,0.2-0.3,0.4-0.3,0.7l-8.7,29.4
			c-0.2,0.5-0.1,1.1,0.2,1.6l19,31.4l-9.8,58.3l-32.6-40.5l17.8-78.5c0-0.2,0.1-0.4,0-0.6l-3.2-43.2l48.6,1.8L1943.5,235.8z
			 M1987,167.6l-9.9,24.7l-48.5-1.8l49.1-46.1L1987,167.6z M2029.9,102.2l-10.1,18.7l-8.6-30.9L2029.9,102.2z M2006.3,87.5
			l10.2,36.5l-21.8-1.8c-0.6-0.1-1.2,0.2-1.6,0.6l-13.1,13.7l-6.5-49H2006.3z M1969.3,87.3l6.5,49.4l-81.4-56.5L1969.3,87.3z
			 M1975.3,141.1l-50.6,47.5l-34-106.2L1975.3,141.1z M1886.2,81.7L1919,184l-60.1-66.6L1886.2,81.7z M1854.4,118.8l12.7,91.3
			c-3.8-11.6-8.7-26.7-13.6-41.7c-5.2-15.8-10.3-31.7-14.2-43.5c-1.9-5.9-3.6-10.9-4.7-14.3c-0.5-1.5-0.9-2.7-1.2-3.6L1854.4,118.8z
			 M1868.8,228l-85.1-49.7l45.8-70.6C1832.8,117.3,1855.4,186.7,1868.8,228z M1825.9,105.9L1781,175l-28.1-52.5L1825.9,105.9z
			 M1777.6,177.1l-93.9,6.1l65.7-58.9L1777.6,177.1z M1682.6,138.5l60.2-13.7l-62.5,56.1L1682.6,138.5z M1677,189.5l38.3,146.5
			l-103.5-80.8l1.3-2.7L1677,189.5z M1675.7,185.1l-57,56.2l45-89.4L1675.7,185.1z M1609.8,250.1l-1.7,1.6l-75.7-76.6l127.9-25.5
			L1609.8,250.1z M1644.4,148.8l-109.1,21.8l24.7-22.3L1644.4,148.8z M1493.7,133.5h58.1l5,12.1l-29.1,26.3l-94.9,4.1L1493.7,133.5z
			 M1526.4,176l-4.4,136.4l-92.3-132.2L1526.4,176z M1426.8,183.1l91.3,130.7L1406,265.2L1426.8,183.1z M1380.7,221.7l16.7-3.4
			c0.5-0.1,1-0.4,1.3-0.9c0.3-0.4,0.4-1,0.3-1.5l-3.1-14.1l26.8-18.7l-19.8,77.9L1380.7,221.7z M1404.4,268.9l97.1,42.1l-106.8-25.9
			L1404.4,268.9z M1520.4,319.7L1427,447.2l-32.8-158.1L1520.4,319.7z M1418.2,424.4l-45.8-127.9l17.8-7.3L1418.2,424.4z
			 M1343.1,240l5.7-17.7l39.8,63.1l-17.5,7.2l-5-19.4c0,0,0-0.1,0-0.1c0-0.1-0.1-0.1-0.1-0.2c0-0.1-0.1-0.2-0.1-0.3c0,0,0-0.1,0-0.1
			L1343.1,240z M1363,277.1l4.4,17l-60.5,24.8L1363,277.1z M1357.3,276.4l-64.5,48l-60-36.5L1357.3,276.4z M1228.2,289.7l55.5,33.8
			l-60-8.4L1228.2,289.7z M1196.2,284.1l23.5,33.7l42.3,75.7l-88.2-26l-14.1-87.6L1196.2,284.1z M1168.9,362.9l-33.3-36.4l20.7-42.2
			L1168.9,362.9z M1162.6,361.9l-24.8-13.3l-1.8-15.8L1162.6,361.9z M1066.7,320.2l30.1-22.2l9,58l-24.6-18.3L1066.7,320.2z
			 M1033.3,400.6l3.7-34.2l38.3-22.3l-26.7,56.4H1033.3z M1117,387.6l-25,35.3l-12.5-21.3c-0.4-0.6-1-1-1.7-1H1053l27.6-58.4
			l26.3,19.6L1117,387.6z M1109.8,355.4l-8.6-55.6l29.4,27.3L1109.8,355.4z M1132.6,323.5l-30.4-28.1l51.3-14.5L1132.6,323.5z
			 M1129,366.2l7.7-13.7l30.5,16.4l-26,10L1129,366.2z M1143.5,382.3l23.4-9l-15.4,23.4L1143.5,382.3z M1153,401.6l19.8-30.1
			l84.2,24.8L1146.3,414L1153,401.6z M1262.1,399.6l-77.4,125.3l-30.9-53.5l-9-53.1L1262.1,399.6z M1136.1,545.5l16.6-68.2
			l29.1,50.4L1136.1,545.5z M1181.5,532.2l-4.7,14.6h-32.9L1181.5,532.2z M1132.2,544.7l-29.5-32.3l45.2-32.3L1132.2,544.7z
			 M1141.1,419.7l8.2,48.9l-53-24.7L1141.1,419.7z M1149.6,473.1l-0.2,1l-48.1,34.3l-7-61.1L1149.6,473.1z M1063.1,438.2l27,7.4
			l7.1,61.6l-55-48.5L1063.1,438.2z M1041.1,463.1l55.3,48.8l-15.1,10.8l-40.2-4.4V463.1z M1019.3,457l-12.7,13.2l-13-17.9l12.6-18
			L1019.3,457z M984.5,402.6l19.5,28l-12.8,18.3l-14-19.3L984.5,402.6z M939.6,457.7l19.2-17.4l15.6-7.8l13.7,19l-41,18L939.6,457.7
			z M953.8,470.9l36.7-16.1l12.1,16.7l-33.8,1.2L953.8,470.9z M985.1,487.9l-11.7-11.4l32.6-1.2l10.3,4.5c0.7,0.3,1.5,0.2,2.1-0.3
			l18.7-16.4v55.7l-28.7,12.3v-21.7c0-0.6-0.2-1.1-0.7-1.5L985.1,487.9z M1014.1,560.4L994.3,587l-38.6-45.9l51-5
			c0.1,0,0.2-0.1,0.3-0.1c0.1,0,0.2,0,0.3-0.1l27.3-11.7L1014.1,560.4z M1071.1,538.5l-50.9,19.2l20-35.4l38.3,4.2L1071.1,538.5z
			 M1099.1,575.5l-24.2-35.4l7.4-12.2l38.9,34.6L1099.1,575.5z M1124.1,559.7l-39.1-34.8l14.3-10.2l31.4,34.3L1124.1,559.7z
			 M1172.6,560l-2.4,30l-42.9-27.8l7.1-11.4l41.2,0l-2.8,8.7C1172.7,559.7,1172.7,559.8,1172.6,560z M1176.6,560.5l3.1-9.7h22.3
			l-27.5,36.1L1176.6,560.5z M1176.3,591.1l28-36.7l1.6,34L1176.3,591.1z M1206.2,546.8c-0.1,0-0.1,0-0.2,0h-25l5.3-16.8l20.3-13.9
			h32.3l20.1,32.5L1206.2,546.8z M1208.1,550.9l48.7,1.7l-47,33.8L1208.1,550.9z M1214,592.1l58.8-1.1l-40.9,31.7l-1.8-18
			c-0.1-0.6-0.4-1.1-0.8-1.4L1214,592.1z M1230.6,629.5l88.5,19.1l-53,39.2l-44.7-31.8L1230.6,629.5z M1166.4,1027.4l-60.1,14
			l44.5-49L1166.4,1027.4z M1115.5,920.4l105.9,10.8l-69.4,54.6L1115.5,920.4z M1154.6,991l47.3,3.4l-32,30.9L1154.6,991z
			 M1206.5,995.6l32.1,33.7l-64.6-2.3L1206.5,995.6z M1206.8,990.8c0,0-0.1,0-0.1,0l-49.9-3.6l68.8-54.2l22.8,65.2L1206.8,990.8
			C1206.8,990.8,1206.8,990.8,1206.8,990.8z M1118.3,916.6l87.1-50.1l18.4,60.8L1118.3,916.6z M1076.1,829l59.5-39l64.9,69.9
			L1076.1,829z M1186.7,860.7l-82.5-3.6l-25.8-23.4L1186.7,860.7z M1021.7,722l-54.2,48.2l-4.7-96.4L1021.7,722z M965.9,671.2
			l64.6-4.7l-7.2,51.6L965.9,671.2z M1024.6,724.7l32.5,33.8l-85.1,12.9L1024.6,724.7z M1027.8,722.2l46.4-35.1l-14,68.7
			L1027.8,722.2z M1131.5,788l-58.8,38.5l-8.9-63.5L1131.5,788z M1066.5,759.7l71.2-32.8l-3.6,57.7L1066.5,759.7z M1214.5,663.2
			l-14.6,39.5l-51.2,16.1L1214.5,663.2z M1149.7,712.8l30.5-45.3l31.3-7L1149.7,712.8z M1203.7,706.8l63.7,12.5l-60.1,33.8
			L1203.7,706.8z M1204.5,858.4l-65.2-70.3l64.3-28.7L1204.5,858.4z M1199.7,707l3.5,46l-58-28.9L1199.7,707z M1200.8,756.3
			l-62.7,28l3.6-57.4L1200.8,756.3z M1207.5,757.6l63.6-35.8l0.4,23.2c0,0.5,0.2,0.9,0.5,1.3l34.1,38.4l-97.8,74.9L1207.5,757.6z
			 M1204.2,702.8l15.5-42.2l48,54.6L1204.2,702.8z M1227.2,627l-8.5,24.6l-12-23.6L1227.2,627z M1216.1,655.4l-32.9,7.4l20.2-32.4
			L1216.1,655.4z M1199.8,628.5l-20.4,32.8l-11.3-31.1L1199.8,628.5z M1151.2,614.6l12.3,14.6l11.7,32l-42.9-24.9L1151.2,614.6z
			 M1176.1,666.4l-34.9,51.7l-9.5-77.5L1176.1,666.4z M1137.4,719.6l-56.9-37.6l47.2-41.2L1137.4,719.6z M1107.9,620.2l18.3,16.7
			l-43.4,37.8L1107.9,620.2z M1079.2,618.3l24.9,0.6l-24.9,54.3V618.3z M1135.8,723.4l-71.7,33.1l14.5-70.8L1135.8,723.4z
			 M1075.2,679.3l-39-15.8l39-42.2V679.3z M1070.2,592.2l4.1,20l-33.3-20H1070.2z M1035.7,593.7l38.3,23l-39.2,42.4L1035.7,593.7z
			 M1034.4,667.1l38.7,15.7l-45.7,34.6L1034.4,667.1z M1013.8,606.4l17.9-12.3l-0.9,68.4l-65.9,4.8L1013.8,606.4z M1006.7,608.8
			l-44.9,55.9l-7.1-39.1L1006.7,608.8z M951,628.1l7,38.5l-37.7-11.7L951,628.1z M892.3,706.8l25-48.8l39.9,12.4L894,749
			L892.3,706.8z M958.8,674.8l4.7,97l-67.8-18.5L958.8,674.8z M953.1,821.8l-29.9-23.4l-26.3-40.7l66.5,18.1L953.1,821.8z
			 M967.3,776.2l84.5-12.8l-94.5,57.8L967.3,776.2z M1018.6,827.9l-57.8-4.1l99-60.6l9.1,64.6L1018.6,827.9z M1071.9,833.2
			l26.8,24.3l-39,4L1071.9,833.2z M1060.9,865.5l40.7-4.2l7.4,51.2L1060.9,865.5z M1105.7,861.2l93.8,4.1l-86.1,49.5L1105.7,861.2z
			 M1098.4,950l13.6-27.7l35.8,64.1l-55-5.3L1098.4,950z M1092.9,985.2l54.4,5.2l-45.4,50L1092.9,985.2z M1127.2,1071.2l-22.9-25.2
			l59-13.8L1127.2,1071.2z M1129.9,1115.5l-0.6-38.1l56.4,27.9L1129.9,1115.5z M1130.5,1073.6l37.8-40.8l20.5,69.7L1130.5,1073.6z
			 M1192.7,1101.6l-20.8-70.7l67.8,2.4L1192.7,1101.6z M1242.4,1027.5l-30.2-31.7l36.7,6.6L1242.4,1027.5z M1252.1,996.6l-22-62.8
			l50.3,26.4L1252.1,996.6z M1281.9,956.5l-51.8-27.2l63.9-52.5L1281.9,956.5z M1295.4,870.5l-67.8,55.7l-18.5-61l101.8-14.6
			L1295.4,870.5z M1213.8,860.5l93.7-71.8l5.8,57.4L1213.8,860.5z M1316.7,840.1l-5.4-53.1h28.5L1316.7,840.1z M1369.6,757.3
			l-23.2,15.4c-0.3,0.2-0.6,0.5-0.7,0.9l-4.1,9.3h-31.6l-34.5-38.8l-0.5-25.8c0-0.1,0-0.2-0.1-0.4c0-0.1,0-0.1,0-0.2
			c-0.1-0.3-0.2-0.5-0.4-0.7c0,0,0,0,0,0l-42.7-48.6l32.7,23.3l29.9,40.8c0.6,0.9,1.9,1.1,2.8,0.5l56.1-39.1l-54.3,68
			c-0.6,0.7-0.6,1.7,0,2.5c0.4,0.5,1,0.8,1.6,0.8c0.3,0,0.5-0.1,0.8-0.2l68.7-29.5L1369.6,757.3z M1269.9,692.1l86.7-5.3l-60,41.9
			L1269.9,692.1z M1373.7,752.6l0.5-19.1l32.8-22L1373.7,752.6z M1412.5,702.9l-38.8,26.1l-7.5-41.7L1412.5,702.9z M1370,731.2
			l-62.8,26.9l55.2-69.1L1370,731.2z M1358.8,682.6l-86,5.3l51-37.7L1358.8,682.6z M1323.6,645.5l-76.5-16.5l88.3,10.5L1323.6,645.5
			z M1286.5,592.3l112.1,20.6l-56,23L1286.5,592.3z M1345.7,639l53.7-22l-33.9,42.9L1345.7,639z M1369.3,661.4L1406,615l77.5,61
			L1369.3,661.4z M1489.8,675.9l-79.6-62.7l127.9-30.7L1489.8,675.9z M1492.6,683.7l61.4,55.4l-58.4,9.6L1492.6,683.7z
			 M1554.6,778.3l-14.8,17.2l-41.9-43.1l58.5-9.7L1554.6,778.3z M1558.6,737.8l-62.4-56.3l118,10.4L1558.6,737.8z M1495.4,677.4
			l90.3-76.3l30.7,87L1495.4,677.4z M1589.7,600.7l59.5,17.4l-29.7,66.8L1589.7,600.7z M1653.2,619.1l77.8,12.2L1623.4,686
			L1653.2,619.1z M1734.3,634.1l-19.7,72l-89.2-16.6L1734.3,634.1z M1710.7,709.4l-41.2,26.5l-44.1-42.3L1710.7,709.4z"/>
		<path fill="#002932" d="M1352.9,979.8l-4.7-35.4c-0.1-0.7-0.6-1.3-1.3-1.6c-0.7-0.3-1.5-0.1-2,0.3l-41.4,35.4c0,0,0,0-0.1,0.1
			c-0.1,0.1-0.2,0.3-0.3,0.4c0,0-0.1,0.1-0.1,0.1c0,0,0,0,0,0c-0.1,0.2-0.2,0.4-0.2,0.6c0,0,0,0,0,0l-8,56.7
			c-0.1,0.5,0.1,1.1,0.4,1.5c0.3,0.4,0.8,0.7,1.3,0.8l31,4c0.1,0,0.2,0,0.3,0c0.5,0,0.9-0.2,1.3-0.5c0.4-0.4,0.7-0.9,0.7-1.5l1-27.5
			l21.7-32.2c0-0.1,0-0.1,0.1-0.2c0.1-0.1,0.1-0.2,0.1-0.3c0-0.1,0.1-0.3,0.1-0.4c0-0.1,0-0.1,0-0.2c0,0,0-0.1,0-0.1
			C1352.9,979.9,1352.9,979.9,1352.9,979.8z M1325.9,1038.6l-26.9-3.5l7-49.9l20.7,28.2L1325.9,1038.6z M1328.8,1009.3l-20-27.2
			h38.3L1328.8,1009.3z M1310.2,978.1l34.5-29.5l3.9,29.5H1310.2z"/>
		<path fill="#002932" d="M1845.6,753.1c0.2,0,0.5,0,0.7-0.1c0.7-0.3,1.2-0.9,1.3-1.7l4-52.7c0-0.6-0.1-1.1-0.5-1.5
			c-0.4-0.4-0.9-0.6-1.5-0.6h-18.7c-0.5,0-1,0.2-1.4,0.5l-20.7,19.4c-0.4,0.4-0.6,0.9-0.6,1.5c0,0.6,0.2,1.1,0.6,1.5l35.4,33.4
			C1844.6,752.9,1845.1,753.1,1845.6,753.1z M1813.1,717.7l18.6-17.4h15.7l-3.5,46.4L1813.1,717.7z"/>
		<path fill="#002932" d="M1820.4,797.3c-0.7-0.3-1.5-0.2-2.1,0.3l-64.1,54.1c-0.1,0.1-0.3,0.3-0.4,0.4c0,0,0,0,0,0
			c-0.1,0.2-0.2,0.4-0.3,0.6c0,0.1,0,0.1,0,0.2c0,0.2-0.1,0.5,0,0.7l6,31.4c0.2,0.9,0.9,1.6,1.8,1.6l36.7,2.7c0,0,0.1,0,0.1,0
			c0.5,0,1-0.2,1.4-0.5l31.7-29.4c0.7-0.7,0.8-1.7,0.3-2.5l-10-16.2v-41.5C1821.6,798.4,1821.1,797.7,1820.4,797.3z M1817.6,803.5
			v36.1l-55,10.3L1817.6,803.5z M1827.3,857.5l-29.9,27.7l-34.3-2.5l-5.3-27.9l60.8-11.4L1827.3,857.5z"/>
		<path fill="#002932" d="M1661.4,821.7c-0.6-0.5-1.4-0.7-2.2-0.4c-0.7,0.3-1.2,1-1.2,1.8v39.4c0,0.6,0.3,1.1,0.7,1.5l52.1,44.7
			c0,0,0,0,0.1,0c0.1,0.1,0.3,0.2,0.4,0.2c0.1,0,0.1,0.1,0.2,0.1c0.2,0.1,0.4,0.1,0.7,0.1c0.2,0,0.4,0,0.6-0.1c0,0,0,0,0,0
			c0.2-0.1,0.4-0.2,0.6-0.3l21.4-16c0.5-0.4,0.8-0.9,0.8-1.5c0-0.6-0.2-1.2-0.6-1.6L1661.4,821.7z M1662,861.6v-33.9l33,30.6
			l13.2,42.9L1662,861.6z M1713.1,904l-12.3-40.2l29.5,27.4L1713.1,904z"/>
		<path fill="#002932" d="M1927,442.2c-0.3-0.8-1-1.3-1.9-1.3c-1.8-0.8-8.6-6.3-12.3-9.3c-6.8-5.5-7.1-5.7-8-5.7c0,0,0,0,0,0
			c-0.9,0-10.8-1-16.8-1.7c-0.6-0.1-1.2,0.1-1.6,0.6c-0.4,0.4-0.6,1-0.6,1.6l2.2,28.2l-15.1,10.7c-0.5,0.4-0.8,1-0.8,1.6
			c0,0.6,0.3,1.3,0.8,1.6l13.8,9.9l9.5,34.9l-41.1,36.8c-0.6,0.5-0.8,1.4-0.6,2.1s1,1.3,1.8,1.3l30,2c0,0,0.1,0,0.1,0
			c0.3,0,0.6-0.1,0.9-0.2l33.4-17c0.2-0.1,0.3-0.2,0.5-0.3c0,0,0,0,0,0c0,0,0,0,0,0c0.2-0.2,0.3-0.3,0.4-0.5c0-0.1,0.1-0.1,0.1-0.2
			c0.1-0.2,0.1-0.4,0.1-0.7l0,0c0,0,0,0,0,0l1.3-35.4c0-0.7-0.3-1.3-0.8-1.7l-30.7-22.6C1927.7,444.1,1927.6,444,1927,442.2z
			 M1885.9,551.8l-24.7-1.6l37.1-33.2l18.2,19.3L1885.9,551.8z M1919,502.4l-1.1,29.6l-17.7-18.8l-8.4-30.8L1919,502.4z
			 M1888.2,474.8l-10.8-7.8l13.7-9.7c0.6-0.4,0.9-1.1,0.8-1.8l-2.1-27c4.5,0.5,12.1,1.2,14.3,1.4c0.9,0.6,3.6,2.8,6.1,4.8
			c5.9,4.8,9.4,7.5,11.5,8.9C1916.3,448.9,1899.7,464.3,1888.2,474.8z"/>
		<path fill="#002932" d="M1965.8,930.1C1965.8,930.1,1965.8,930.1,1965.8,930.1c0.2,0.2,0.4,0.3,0.7,0.4c0.1,0,0.2,0,0.2,0
			c0.1,0,0.3,0.1,0.4,0.1c0,0,0.1,0,0.1,0c0,0,0,0,0,0l29.6-1.9l27.4,29.3c0.4,0.4,0.9,0.6,1.5,0.6c0.2,0,0.4,0,0.6-0.1
			c0.7-0.2,1.3-0.9,1.4-1.6l6.8-52.1c0-0.1,0-0.1,0-0.2c0-0.2,0-0.4-0.1-0.5c0-0.1-0.1-0.2-0.1-0.3c0-0.1,0-0.2-0.1-0.3
			c0-0.1-0.1-0.1-0.2-0.2c0,0,0-0.1-0.1-0.2c0,0-0.1-0.1-0.1-0.1c-0.1-0.1-0.3-0.2-0.4-0.3c-0.1,0-0.2-0.1-0.3-0.1
			c-0.2-0.1-0.4-0.1-0.5-0.1c-0.1,0-0.1,0-0.2,0l-25.9,2.6l-46.4-46.6c0,0-0.1,0-0.1-0.1c-0.1-0.1-0.3-0.2-0.5-0.3
			c-0.1,0-0.1-0.1-0.2-0.1c-0.1-0.1-0.3-0.1-0.5-0.1c-0.1,0-0.2-0.1-0.3,0c0,0-0.1,0-0.1,0c0,0-0.1,0-0.1,0c-0.1,0-0.2,0.1-0.3,0.1
			c-0.1,0-0.3,0.1-0.4,0.1c-0.1,0.1-0.2,0.2-0.3,0.2c-0.1,0.1-0.2,0.1-0.2,0.2l-30.5,33c-0.4,0.4-0.6,0.9-0.5,1.4
			c0,0.5,0.3,1,0.7,1.4L1965.8,930.1z M2024.3,952.2l-23.5-25.2l29.2-18.5L2024.3,952.2z M2004.2,908.7c0.4,0.4,1,0.6,1.6,0.6
			l18.4-1.8l-27.3,17.2l-28.1,1.8l-7.6-60.9L2004.2,908.7z M1957.1,864.6l7.3,58.9l-33.6-30.5L1957.1,864.6z"/>
		<path fill="#002932" d="M2025.8,1080.4c0-0.2,0-0.3,0-0.5c0-0.1-0.1-0.2-0.1-0.3c0-0.1,0-0.2-0.1-0.2c0-0.1-0.1-0.1-0.2-0.2
			c0-0.1-0.1-0.1-0.1-0.2l-25.8-30.2l-3.1-60.1c0-0.8-0.5-1.5-1.3-1.8c-0.7-0.3-1.6-0.1-2.1,0.5l-31.1,31.5l-20.1,2.3l1.9-57.1
			c0-0.6-0.3-1.2-0.7-1.6c-0.5-0.4-1.1-0.5-1.7-0.4c-2.6,0.7-41,9.9-41.4,10c-0.3,0.1-0.6,0.2-0.8,0.4l-28,24.3l-10.9-23.6
			c-0.3-0.6-0.8-1-1.5-1.1c-0.6-0.1-1.3,0.1-1.8,0.6l-32.7,32.7c0,0,0,0.1-0.1,0.1c-0.1,0.1-0.2,0.3-0.3,0.5c0,0-0.1,0.1-0.1,0.1
			c0,0,0,0,0,0.1c-0.1,0.2-0.1,0.4-0.1,0.6c0,0,0,0,0,0v14.2l-30.3,16.1c-0.1,0.1-0.3,0.2-0.4,0.2l-23.4,20
			c-0.1,0.1-0.1,0.1-0.2,0.2c-0.1,0.1-0.2,0.2-0.3,0.4c0,0-0.1,0.1-0.1,0.1l-16.7,35.4c-0.1,0.3-0.2,0.6-0.2,0.9l1.3,60.8
			c0,1.1,0.9,2,2,2h34c0.5,0,1-0.2,1.3-0.5l28.5-25.3l36.6,11.6l35.6,28.5l-2.6,52.4c0,0.5,0.2,1.1,0.5,1.5c0.4,0.4,0.9,0.6,1.5,0.6
			h43.4c0,0,0,0,0,0c0,0,0,0,0,0c0.3,0,0.5-0.1,0.7-0.2c0.1,0,0.1-0.1,0.2-0.1c0.1,0,0.2-0.1,0.3-0.1c0.1,0,0.1-0.1,0.1-0.2
			c0,0,0.1-0.1,0.1-0.1l45.6-51.1c0.1,0,0.2,0,0.2,0c0.3-0.1,0.5-0.3,0.6-0.4c0,0,0-0.1,0.1-0.1c0.1-0.1,0.2-0.3,0.3-0.4
			c0-0.1,0.1-0.1,0.1-0.2c0.1-0.2,0.1-0.4,0.1-0.6c0,0,0-0.1,0-0.1c0,0,0,0,0,0c0,0,0,0,0,0c0,0,0,0,0,0l33.7-45.3
			c0.2-0.2,0.3-0.5,0.4-0.8l8.8-45.4C2025.8,1080.5,2025.8,1080.5,2025.8,1080.4z M1997.9,1052.9l22.8,26.7l-56.7,28.8
			L1997.9,1052.9z M1963.1,1022.8c0.5-0.1,0.9-0.3,1.2-0.6l28.4-28.8l2.8,52.9l-48.3-21.7L1963.1,1022.8z M1994.7,1050.4l-35.3,57.6
			l-17-81.1L1994.7,1050.4z M1955.7,1109.4l-63.6-36.7l46.5-45.3L1955.7,1109.4z M1954.9,1113.6l-59.1,52.7l-4.9-89.6L1954.9,1113.6
			z M1901.3,975.9c4-1,29.8-7.2,38.4-9.3l-1.8,54.1l-63.6-21.4L1901.3,975.9z M1936,1024.3l-45.9,44.7l-16.9-65.8L1936,1024.3z
			 M1857.7,977.5l9.7,21l-36.1,5.4L1857.7,977.5z M1868.8,1002.3l16.3,63.6l-55.5-57.8L1868.8,1002.3z M1788.8,1153h-31.3l-1.3-58.3
			l15-31.8l45.1,65.8L1788.8,1153z M1817.3,1123l-43.8-63.8l21.8-18.7l28-14.9L1817.3,1123z M1827.6,1022.3
			C1827.6,1022.2,1827.6,1022.2,1827.6,1022.3c0-0.1,0-0.1,0-0.1v-10.4l58.5,60.9l-64.9,51.9L1827.6,1022.3z M1858.2,1139.4
			c-0.2-0.2-0.4-0.3-0.6-0.3l-34.5-10.9l63.8-51l4.9,89.1L1858.2,1139.4z M1893.1,1221.7l2.3-46l35,46H1893.1z M1934.5,1220.6
			l-36.4-48l78.1,1.4L1934.5,1220.6z M1899.1,1168.6l57.9-51.6l21,53L1899.1,1168.6z M2013.2,1124.8l-31.8,42.8l-21-52.9l60.7-30.8
			L2013.2,1124.8z"/>
		<path fill="#002932" d="M1937.6,1239.8l-33.1-2c-0.6,0-1.1,0.2-1.5,0.5c-0.4,0.4-0.6,0.9-0.6,1.5v34.7c0,0.8,0.5,1.5,1.2,1.8
			c0.3,0.1,0.5,0.2,0.8,0.2c0.5,0,1-0.2,1.4-0.6l33.1-32.7c0.6-0.6,0.7-1.4,0.5-2.1C1939.1,1240.3,1938.4,1239.8,1937.6,1239.8z
			 M1906.3,1269.7v-27.8l26.5,1.6L1906.3,1269.7z"/>
		<path fill="#002932" d="M2092,1262.4c-0.4-0.4-0.9-0.6-1.4-0.6c-0.5,0-1.1,0.2-1.4,0.6l-39.9,41.8l-16.2-5c-0.9-0.3-1.9,0.1-2.4,1
			l-13.4,26.7c-0.4,0.7-0.3,1.6,0.2,2.2c0.4,0.5,1,0.7,1.6,0.7c0.2,0,0.4,0,0.5-0.1l49.4-13.4c0,0,0,0,0,0c0.1,0,0.1,0,0.2-0.1
			c0.1,0,0.2-0.1,0.3-0.2c0.1,0,0.1-0.1,0.2-0.1c0.1-0.1,0.1-0.1,0.2-0.2l36.1-36.7c0.8-0.8,0.8-2,0-2.8L2092,1262.4z M2023,1324.8
			l10.6-21.2l15.6,4.8l13.3,5.7L2023,1324.8z M2068.1,1312.2l-14.8-6.3l37.3-39.2l11.2,11.2L2068.1,1312.2z"/>
		<path fill="#002932" d="M2159.9,1239.1c-0.2-0.6-0.7-1.1-1.3-1.3l-12.1-3.6l-2.6-28.7c-0.1-0.7-0.5-1.3-1.1-1.6
			c-0.6-0.3-1.4-0.3-2,0.1l-17.4,11.4c-0.6,0.4-0.9,1.1-0.9,1.8l1.3,25.6l-11.2,24.9c-0.1,0.3-0.2,0.7-0.2,1l2.7,27.4
			c0.1,0.8,0.7,1.5,1.5,1.7c0.2,0,0.4,0.1,0.5,0.1c0.6,0,1.2-0.3,1.6-0.8l40.7-56.1C2160,1240.4,2160.1,1239.7,2159.9,1239.1z
			 M2140.3,1209.2l2.2,25.2l-14.7,5.8l-1.1-22.1L2140.3,1209.2z M2118.8,1290.4l-2.1-21.6l10.8-24.1l17.3-6.8l10,3L2118.8,1290.4z"
			/>
	</g>
	<g>
		<path fill="#63B8E7" d="M474.8,143.9c0.4,0.4,0.9,0.7,1.5,0.7c0.1,0,0.2,0,0.3,0l30.7-5.3c0.7-0.1,1.3-0.6,1.5-1.3
			c0.2-0.7,0.1-1.4-0.4-2l-18.7-21.4c-0.4-0.4-0.9-0.7-1.5-0.7h-36.1c-0.8,0-1.5,0.5-1.8,1.2c-0.3,0.7-0.2,1.6,0.3,2.2L474.8,143.9z
			 M487.4,117.8l15.7,18l-26.1,4.5l-20.3-22.5H487.4z"/>
		<path fill="#63B8E7" d="M408.7,192.4l42.7,20c0,0,0,0,0.1,0c0.2,0.1,0.5,0.2,0.8,0.2c0,0,0,0,0,0c0,0,0,0,0,0c0,0,0,0,0,0
			c0.1,0,0.2,0,0.3,0c0,0,0.1,0,0.1,0c0.2,0,0.4-0.1,0.6-0.2c0,0,0.1,0,0.1,0c0,0,0,0,0,0l48.1-30c0.6-0.4,0.9-1,0.9-1.7v-19.4
			c0-1-0.7-1.8-1.6-2l-56.1-10.7c-0.2,0-0.4,0-0.6,0c0,0,0,0,0,0c0,0-0.1,0-0.1,0c-0.2,0-0.4,0.1-0.6,0.2c0,0-0.1,0-0.1,0.1
			c-0.2,0.1-0.3,0.2-0.5,0.4L408,189.3c-0.4,0.5-0.6,1.1-0.4,1.7C407.7,191.6,408.1,192.1,408.7,192.4z M498.3,179.5l-44.5,27.8
			l-7.2-54.3l51.7,9.9V179.5z M442.9,155.2l6.9,52l-37-17.3L442.9,155.2z"/>
		<path fill="#63B8E7" d="M786.5,848.2l-44.1-10.7c0,0,0,0,0,0c0,0,0,0,0,0l-0.1,0l-53.3-8L630.8,819l-49-47.6
			c-0.4-0.4-0.9-0.6-1.5-0.6l-72.1,2.7c0,0,0,0,0,0l0,0c-0.5,0-1,0.2-1.4,0.6l0,0c0,0,0,0,0,0l-25.3,26.5l-11.9-11.9
			c-0.4-0.4-0.9-0.6-1.4-0.6H452l-9.5-14.3l7.7-21.7c0.2-0.4,0.2-0.9,0-1.3c0,0,0,0,0,0c0-0.1-0.1-0.2-0.1-0.2c0,0,0,0,0,0
			c-0.2-0.4-0.5-0.7-0.9-0.9h0c0,0,0,0,0,0c0,0,0,0,0,0c-0.1,0-0.1-0.1-0.2-0.1h0c0,0,0,0,0,0c0,0,0,0,0,0c-0.1,0-0.2-0.1-0.3-0.1
			l-36.2-6.2l20.4-47.1c0.2-0.6,0.2-1.2-0.1-1.7c-0.3-0.5-0.8-0.9-1.4-1l-21.4-4c-0.1,0-0.2,0-0.3,0c0,0-0.1,0-0.1,0c0,0,0,0-0.1,0
			c-0.2,0-0.5,0-0.7,0.1c0,0-0.1,0-0.1,0.1c-0.2,0.1-0.3,0.2-0.5,0.3c0,0-0.1,0.1-0.1,0.1c0,0-0.1,0.1-0.1,0.1l-9,11.6l-16.1,7.4
			l-19-8.3l7.5-34l32.8-38l20.6-9l28.2-2.5v48.6c0,0.8,0.5,1.5,1.2,1.8c0.7,0.3,1.6,0.2,2.2-0.4l24.7-22.7c0.4-0.4,0.6-0.9,0.6-1.5
			v-29.9l20-22c0,0,0,0,0,0l0.1-0.1l41.1-43.7l31.7-13.2c0.5-0.2,0.8-0.5,1-1l14.1-29.6h32.1c1.1,0,2-0.9,2-2v-55.5l45.8-2.4
			l-12.2,31.8c-0.2,0.6-0.2,1.3,0.2,1.8l16,25.4c0.3,0.5,0.9,0.9,1.5,0.9c0.6,0.1,1.2-0.1,1.6-0.6l13.4-13.4
			c0.7-0.7,0.8-1.8,0.2-2.6l-10.3-14.2l-1.2-18.7l11.5-14.1c0.7-0.8,0.6-2.1-0.2-2.8l-19.7-17l-10.4-26.1l-5.3-29.2
			c-0.1-0.6-0.5-1.1-1-1.4l-59-34.7l21-18.7l49.6,20.9c0.7,0.3,1.4,0.2,2-0.3c0.6-0.5,0.9-1.2,0.7-1.9l-6.3-37.7h27
			c0.7,0,1.3-0.3,1.6-0.8c0.4-0.5,0.5-1.2,0.3-1.8l-8-22.7c-0.1-0.2-0.2-0.4-0.3-0.6L664.7,244l-20-21.4c-0.2-0.2-0.4-0.3-0.6-0.4
			l-42.1-19.7l-15.7-30.1c-0.3-0.7-1-1.1-1.8-1.1c0,0,0,0,0,0c-0.8,0-1.4,0.4-1.8,1.1l-24,48.1c-0.3,0.6-0.3,1.4,0.1,2
			c0.4,0.6,1,0.9,1.8,0.9l32.6-1.1l-41.6,25.8l-32.3-38.7c-0.1-0.1-0.2-0.2-0.3-0.2c0,0-0.1-0.1-0.1-0.1c-0.4-0.3-0.9-0.4-1.4-0.3
			c0,0,0,0-0.1,0c-0.1,0-0.1,0-0.1,0.1c-0.1,0-0.2,0-0.3,0.1l-72.2,28.9l-79.2-77.9c0,0,0,0,0,0c0,0-0.1-0.1-0.1-0.1
			c0,0-0.1,0-0.1-0.1c-0.1-0.1-0.2-0.1-0.3-0.2c-0.1,0-0.2-0.1-0.2-0.1c-0.1,0-0.1,0-0.2-0.1l-78.3-18.6l-53-46.4
			c-0.1-0.1-0.2-0.1-0.3-0.2c-0.1-0.1-0.2-0.1-0.3-0.2c-0.1-0.1-0.3-0.1-0.4-0.1c-0.1,0-0.2-0.1-0.3-0.1c0,0-0.1,0-0.1,0h-84.1
			c-0.7,0-1.3,0.3-1.6,0.9c-0.4,0.5-0.5,1.2-0.2,1.8l19.3,52.7l-50,14.1c-0.6,0.2-1,0.5-1.3,1.1l-21.4,45.4
			c-0.1,0.1-0.1,0.3-0.1,0.4l-10.7,45.4c-0.2,0.6,0,1.3,0.5,1.8l29.4,32c0.1,0.2,0.3,0.3,0.5,0.4c0,0,0,0,0,0c0,0,0,0,0,0
			c0,0,0,0,0,0c0.2,0.1,0.3,0.1,0.5,0.2c0.1,0,0.1,0,0.2,0c0.1,0,0.1,0,0.2,0c0.1,0,0.2,0,0.2,0c0.1,0,0.1,0,0.2,0
			c0.2,0,0.4-0.1,0.6-0.2c0,0,0,0,0,0l0,0c0,0,0,0,0,0l40.8-23.7l42.8,6.5l41.6,35.1l2.6,65.9c0,0.4,0.2,0.8,0.4,1.2l33.7,41.5
			l-40.5,56.1l-20,26.7c-0.3,0.3-0.4,0.8-0.4,1.2v46.7c0,0.4,0.1,0.7,0.3,1l26.4,43.6v59.5c0,0.5,0.2,1,0.6,1.4l18.5,18.5l13.2,21.2
			c0.1,0.2,0.3,0.4,0.6,0.6l28.5,19.7c0,0,0,0,0,0l6.3,4.4l47.9,29.3l22.5,22.5c0.5,0.5,1.1,0.7,1.7,0.6l44.4-7.4l-3.8,8.5
			l-13.3,19.9c-0.5,0.8-0.4,1.9,0.3,2.6l32,30.7c0.4,0.4,1,0.6,1.5,0.6c0.6,0,1.1-0.3,1.4-0.8l8.9-11.5l25.7-5.8L473,839l-18.7,70.8
			c-0.1,0.2-0.1,0.5-0.1,0.7c0,0,0,0,0,0c0,0.1,0,0.1,0,0.2c0,0.2,0.1,0.3,0.1,0.5l26.7,60.1c0,0,0,0.1,0.1,0.1
			c0,0.1,0.1,0.2,0.2,0.2c0.1,0.1,0.1,0.2,0.2,0.3c0,0,0,0.1,0.1,0.1c0,0,0.1,0.1,0.2,0.1c0.1,0,0.1,0.1,0.1,0.1l48.5,30.1l1.3,67.2
			l9.3,80l-4,101.3c0,0,0,0.1,0,0.1c0,0.1,0,0.1,0,0.2c0,0.2,0.1,0.4,0.1,0.6l0,0c0.1,0.2,0.2,0.4,0.4,0.6c0,0,0,0.1,0.1,0.1
			l46.7,45.4c0,0,0,0,0,0c0,0,0,0,0.1,0c0.2,0.1,0.3,0.3,0.5,0.3c0,0,0.1,0,0.1,0.1c0,0,0.1,0,0.1,0c0,0,0.1,0,0.1,0.1l56.1,13.4
			c0.2,0,0.3,0.1,0.5,0.1c0.7,0,1.4-0.4,1.8-1.1c0.4-0.8,0.2-1.8-0.5-2.4l-45.4-37.6l19.1-31.9c0.4-0.7,0.4-1.6-0.1-2.2l-15.4-20.5
			l14.2-43.9L654,1136l41.4-44.1c0,0,0,0,0,0c0.1-0.1,0.2-0.3,0.3-0.5c0,0,0,0,0-0.1c0.1-0.2,0.1-0.3,0.1-0.5c0-0.1,0-0.1,0-0.2
			c0,0,0,0,0,0l1.3-44l45.5-16.9c0,0,0.1,0,0.1-0.1c0,0,0.1,0,0.1-0.1c0.2-0.1,0.5-0.3,0.6-0.5c0,0,0,0,0,0c0,0,0-0.1,0-0.1
			c0.1-0.2,0.2-0.4,0.3-0.6c0,0,0-0.1,0-0.1c0,0,0,0,0,0l15.9-75.5l27.6-26.3c0,0,0-0.1,0.1-0.1c0.1-0.1,0.2-0.2,0.2-0.4
			c0.1-0.1,0.1-0.2,0.2-0.3c0.1-0.1,0.1-0.3,0.1-0.4c0-0.1,0.1-0.2,0.1-0.3v-74.8C788.1,849.3,787.4,848.5,786.5,848.2z M411.5,735
			v-41.3l16.5,3.1L411.5,735z M368,664.6c-0.2,0.3-0.4,0.6-0.4,0.9l-7.7,34.7l-52.5,8.3L340,594.1l59.7,33.6L368,664.6z
			 M256.5,162.1l-101.1,49.2l14-58.6L256.5,162.1z M261.1,164.4l-21.2,138.1l-84.1-86.9L261.1,164.4z M577.5,236.6l11.4,14.4
			l-10.4,24.1l-24.2-24L577.5,236.6z M422.9,616.3L403,625l-60.1-33.8l153.9-86L422.9,616.3z M389,434.3l110,65L342.2,587L389,434.3
			z M556.6,429.3H392.7l86.9-86.2L556.6,429.3z M474.8,342.1L389.3,427l-11.2-84.9H474.8z M379.6,338.1l64.1-93.8l33.1,93.8H379.6z
			 M339.7,581.4l-6.8-59.5l48.7-76.9L339.7,581.4z M504.9,504.7l34.2,41l-36.6,38.9L504.9,504.7z M502.6,496.8l-107.4-63.5h161.6
			L502.6,496.8z M560.2,427.2l-76.4-85.5l104.6-10L560.2,427.2z M447.7,243.8l77.2,35.5L480.3,336L447.7,243.8z M529.3,273.8
			l-8.6-56.4l27.7,33.3L529.3,273.8z M525.5,275.2l-76.2-35.1l66.8-26.7L525.5,275.2z M377.4,334.2l-11-167.9l75.2,73.9L377.4,334.2
			z M265.4,162.9l94.5,0.3L244.4,300L265.4,162.9z M362.5,166.3l11.2,171.2l-128.7-31.9L362.5,166.3z M385.5,428.9l-101.9-14
			l90.7-71L385.5,428.9z M384.5,432.8L331,517.3l-48.8-98.6L384.5,432.8z M336.5,589.2h-86.9l79.5-63.9L336.5,589.2z M478.2,611.2
			c-0.3,0.4-0.5,0.9-0.5,1.3v29.8l-20.7,19v-46.2c0-0.6-0.2-1.1-0.6-1.5c-0.4-0.4-1-0.6-1.5-0.5l-26.6,2.3l72.6-109.2l-2.4,82.7
			L478.2,611.2z M572.3,530.9l-30,12.5l-36.7-44l54.8-64.3l25.8,66.5L572.3,530.9z M589.8,499.7L564.3,434l55.5,11.9v53.8H589.8z
			 M650.7,366.8l5.2,28.5c0,0.1,0.1,0.3,0.1,0.4l10.7,26.7c0.1,0.3,0.3,0.6,0.5,0.8l18.6,16.1L675,452.4c-0.3,0.4-0.5,0.9-0.4,1.4
			l1.3,20c0,0.4,0.2,0.7,0.4,1l9.7,13.3l-10.4,10.4l-14.1-22.4l13-33.8c0.2-0.6,0.2-1.3-0.2-1.9c-0.4-0.6-1-0.9-1.7-0.8l-50.5,2.7
			l-58.4-12.5l28.7-97.3L650.7,366.8z M663.3,326.2l-45-18.9l28.4-37l10.6,19.8L663.3,326.2z M685.8,287.4h-25.3l-11-20.7l13.9-18.1
			l15.5,19.1L685.8,287.4z M563.7,219.2l20.8-41.6l14.2,27.2c0.2,0.4,0.5,0.7,0.9,0.9l42.4,19.9l18.6,19.8l-13.5,17.6l-45.2-44.6
			c0,0-0.1,0-0.1-0.1c-0.1-0.1-0.3-0.2-0.4-0.3c-0.1,0-0.1-0.1-0.2-0.1c-0.2-0.1-0.3-0.1-0.5-0.1c-0.1,0-0.1,0-0.2,0c0,0,0,0,0,0
			L563.7,219.2z M600.2,222.5l44.4,43.7l0,0.1l-30.9,40.4l-23.4,20.8l-106.2,10.2l45.5-57.9l21.6-26.2l26.5,26.3
			c0.5,0.5,1.1,0.7,1.8,0.5c0.7-0.1,1.2-0.6,1.5-1.2l12-27.9c0.3-0.7,0.2-1.5-0.3-2l-11.8-14.9L600.2,222.5z M284.9,144.5l61.9,14.7
			l-83-0.3l-91.1-9.8l59.2-50.6L284,144C284.3,144.2,284.6,144.4,284.9,144.5z M150.7,97.8h75.8l-57.8,49.3L150.7,97.8z
			 M117.2,166.9l47.9-13.5L151,212.5l-49.7-11.9L117.2,166.9z M96.3,211.3l3.3-6.9l49.9,12l-36.8,68.3l-26.8-29.2L96.3,211.3z
			 M198.9,268.7l-44.1-6.7c-0.4-0.1-0.9,0-1.3,0.2l-35.3,20.5l34.7-64.5l59.4,61.4l-12.5-10.5C199.6,268.9,199.2,268.8,198.9,268.7z
			 M245.9,372.8l-2.5-63.4l128,31.7L279,413.5L245.9,372.8z M278.4,420.1l48.1,97.2l-89.3-40.1l1.7-2.3L278.4,420.1z M219.3,546.5
			V501l15.5-20.6l92.2,41.5l-82.5,66.3L219.3,546.5z M264.4,668.9c-0.1-0.1-0.2-0.2-0.3-0.4L246,650.4v-57.3h90.1l-32.8,114.6
			l-25.8-17.9L264.4,668.9z M309.7,712.2l49.6-7.9l-2.3,36.9l-45.1-27.6L309.7,712.2z M360.9,743.9l2.4-39l17.9,7.8l15.1,50.1
			l-14.1,2.3L360.9,743.9z M400.2,762.3l-15-49.8l15.8-7.3c0.3-0.1,0.5-0.3,0.7-0.6l5.8-7.4v47.6c0,0,0,0,0,0c0,0.1,0,0.2,0.1,0.3
			c0,0.2,0.1,0.4,0.2,0.6c0,0,0,0.1,0,0.1c0,0.1,0.1,0.1,0.1,0.2c0.1,0.2,0.2,0.3,0.4,0.4c0.1,0.1,0.2,0.1,0.3,0.2
			c0.1,0.1,0.3,0.2,0.5,0.2c0.1,0,0.1,0.1,0.2,0.1l32.1,5.5l-12.3,5.3L400.2,762.3z M425.9,772.5c0-0.1,0.1-0.1,0.1-0.2l-3.3,27.7
			l-9.2-8.9L425.9,772.5z M442.7,819.2l-16.4-15.7l5.1-42.7l13.4-5.8l-6.5,18.4c-0.2,0.6-0.1,1.3,0.2,1.8l10.4,15.6l1.2,18.7
			L442.7,819.2z M454.1,807.7l-1-15.6h14.4l10.2,10.2L454.1,807.7z M784.1,916.7l-38.3-74.2l38.3,9.3V916.7z M740.7,1024.3
			l-31.3-23.4l45.4-43.3L740.7,1024.3z M659.5,1124.3l-25.2-4.5l-37.6-74.2l93.9,45.6L659.5,1124.3z M614.6,1167.2l-19.3-50.3
			l36.3,6.5l9.6,19L614.6,1167.2z M543.8,1250.3l53.1-30.7l-3.5,48.3L543.8,1250.3z M585,1292.6l-37.9-36.8l45.5,16.2L585,1292.6z
			 M542.8,1207.6l50.7,9.4l-52.2,30.2L542.8,1207.6z M542.9,1203.5l1.9-49l49.2,58.5L542.9,1203.5z M459.2,912l47.7-4.7l-24,58
			L459.2,912z M475.6,844.9l31.2,58.3l-47.9,4.8L475.6,844.9z M624.4,818.3l-35-3.1l15.1-16.2L624.4,818.3z M735.8,840.6l-70.6,38.3
			l24.5-45.2L735.8,840.6z M706.6,998L676,952.1l77.1,1.5L706.6,998z M659.1,888.9l10.9,59.8l-72.4,26.4L659.1,888.9z M592.3,975.6
			L564,930.8l90.2-41.9L592.3,975.6z M662.5,885l73.8-40l-62.9,99.7L662.5,885z M650.3,886.3l-84.1,39.1l22.1-36.5L650.3,886.3z
			 M591.2,884.7l42.9-59l23.2,56.3L591.2,884.7z M585,881.1l-56.3-68.5l54.5,6L585,881.1z M525.4,814.9l58.2,70.8l-71.1,16.6
			L525.4,814.9z M511.1,907.7l45.6,22.3l-69.7,36L511.1,907.7z M515.9,905.6l67-15.7l-22.6,37.4L515.9,905.6z M561.5,934.4
			l27.7,43.9l-53.3,19.4L561.5,934.4z M590.2,982.1v55.3l-53.4-35.8L590.2,982.1z M594.2,982.9l93.8,60l-93.8-3.6V982.9z
			 M596.7,979.7l74.1-27.1l21.3,88.1L596.7,979.7z M675.8,948.1l65-102.9l14.9,104.4L675.8,948.1z M660.5,879.3l-22.7-55l47.7,8.7
			L660.5,879.3z M589,881l-1.8-62l42.4,3.8l1.4,0.3L589,881z M528.2,808.6l27.7-30l25.1,35.7L528.2,808.6z M524.6,806.6l-13.2-29.2
			l41.6-1.5L524.6,806.6z M508.9,898.7l-31.3-58.4l43.8-26.2L508.9,898.7z M557.2,934.2l-25.8,63.9L487,970.5L557.2,934.2z
			 M535.7,1066l-1.2-61.1l53.7,36L535.7,1066z M590.2,1044.3v65.9l-52.7-40.6L590.2,1044.3z M610.5,1167.6l-63-19l43.7-31.2
			L610.5,1167.6z M594.2,1112.6v-63l35.2,69.3L594.2,1112.6z M601.7,1043.5l91.5,3.6l-1.2,40.3L601.7,1043.5z M696.7,1042.5
			l-19.8-82l27.8,41.7c0,0.1,0.1,0.1,0.1,0.1c0,0,0,0.1,0.1,0.1c0,0,0.1,0,0.1,0.1c0,0,0.1,0.1,0.1,0.1l32.8,24.5L696.7,1042.5z
			 M759.5,947.5L745.7,851l37.9,73.6L759.5,947.5z M601.7,796.2l-16.3,17.5l-26.7-38.1l21-0.8L601.7,796.2z M483.5,804.4l24.2-25.5
			l13.7,30.4l-43.7,26.2L483.5,804.4z M536.2,1073.7l52.6,40.5l-44.2,31.5L536.2,1073.7z M634,1305.6l-45.5-10.8l7.6-20.6
			L634,1305.6z M612.8,1237.5l-15,25l3-41L612.8,1237.5z M598.4,1212l-49.4-58.8l62.4,18.8L598.4,1212z M651.2,1133.1l-6.9,6.4
			l-7.8-15.3l19.7,3.5L651.2,1133.1z"/>
		<path fill="#63B8E7" d="M527.2,162.7c0.3,0.1,0.6,0.2,0.9,0.2c0.5,0,0.9-0.2,1.3-0.5l23-19c0.5-0.4,0.7-0.9,0.7-1.5
			s-0.3-1.2-0.7-1.5l-23-19c-0.6-0.5-1.4-0.6-2.1-0.3c-0.7,0.3-1.1,1-1.1,1.8v38.1C526,161.7,526.5,162.4,527.2,162.7z M530,127.1
			l17.9,14.8L530,156.6V127.1z"/>
		<path fill="#63B8E7" d="M899.6,352.9l23-13c0.6-0.3,0.9-0.9,1-1.5l2-20c0.1-1.1-0.7-2.1-1.8-2.2l-37.9-4.6l9.3-14.3
			c0.2-0.3,0.3-0.7,0.3-1.1v-24c0-0.2,0-0.4-0.1-0.6l-5.9-18.7l0.9-17.8l43.4-34.5c0.2-0.1,0.3-0.3,0.4-0.4l38.1-56.4
			c0.4-0.6,0.5-1.4,0.1-2.1s-1-1.1-1.8-1.1l-54.5-0.6l16.4-9c0.6-0.3,1-1,1-1.6c0-0.7-0.3-1.4-0.8-1.7l-31-21.9
			c-0.3-0.2-0.7-0.4-1.2-0.4h-71.1c0,0-0.1,0-0.1,0c-0.2,0-0.3,0-0.5,0.1c-0.1,0-0.1,0-0.2,0.1c-0.2,0.1-0.4,0.2-0.5,0.4
			c0,0,0,0,0,0l-32.3,32.7l-14.7-23.9c-0.4-0.6-1-1-1.7-1h-44.1v-9.5c0-0.6-0.3-1.2-0.8-1.6l-25-18.5c-0.3-0.2-0.7-0.4-1.1-0.4
			l-41.5-2L649.3,71c-0.9-0.6-2.1-0.3-2.7,0.6l-22,32c-0.2,0.3-0.4,0.7-0.4,1.1v22.7l-31.4,6.4c-0.7,0.1-1.3,0.6-1.5,1.3
			c-0.2,0.7-0.1,1.4,0.4,1.9l21,25c0.4,0.5,0.9,0.7,1.5,0.7h23c0,0,0,0,0,0c0.1,0,0.1,0,0.2,0c0.2,0,0.3,0,0.5-0.1c0,0,0,0,0,0
			c0,0,0,0,0.1,0c0.2-0.1,0.3-0.1,0.5-0.3l24.9-19l38.6-25.7h25.4l-49.2,36.4c-0.5,0.4-0.8,0.9-0.8,1.5l-1,24.7c0,0.1,0,0.2,0.1,0.3
			c0,0.1,0,0.3,0,0.4c0,0,0,0,0,0c0,0.1,0.1,0.2,0.2,0.3c0.1,0.1,0.1,0.3,0.2,0.4c0,0,0,0,0,0c0.1,0.1,0.2,0.1,0.2,0.2
			c0.1,0.1,0.2,0.2,0.4,0.3c0.1,0,0.2,0.1,0.3,0.1c0.1,0,0.3,0.1,0.4,0.1c0,0,0.1,0,0.1,0h26.5l33.9,17.7l13.6,43.6l-19.8,53.4
			c0,0,0,0,0,0c0,0,0,0,0,0c0,0.1,0,0.1,0,0.2c0,0.1-0.1,0.3-0.1,0.4l-1,42.1c0,0.5,0.2,1,0.6,1.4l42.1,44.1
			c0.4,0.4,0.9,0.6,1.4,0.6c0.2,0,0.4,0,0.6-0.1c0.7-0.2,1.3-0.8,1.4-1.5c0.2-1.2,5.8-29,6.5-32.9c1.5-2.5,16.8-15.6,30.7-26.9
			l46-31.3l8.7,5.5l-4.7,19.6c0,0.1,0,0.1,0,0.2c0,0.2,0,0.3,0,0.5c0,0.1,0,0.2,0.1,0.4c0,0.1,0,0.1,0,0.2c0,0.1,0.1,0.2,0.2,0.3
			c0,0,0,0.1,0,0.1l7,10c0.1,0.1,0.2,0.3,0.3,0.4l25,22C897.9,353.2,898.8,353.3,899.6,352.9z M813.9,320.4l-53.4-71.5l95.9,42.5
			L813.9,320.4z M828.9,110.8L882,224.7l-83.8-82.9L828.9,110.8z M833.5,111.3l72.8,31.8l-18.4,84.7L833.5,111.3z M796.2,145.4
			l87.9,86.9l-126.6,9.4L796.2,145.4z M859.6,288.5l-97.1-43.1l122.7-9.2L859.6,288.5z M966.9,144.5l-35.8,53.1l-39.4,31.4l18.5-85
			L966.9,144.5z M927.8,129l-19.4,10.7l-69.4-30.3h60.9L927.8,129z M648.8,75.5l15.4,9.4l-3.7,54.2l-32.2-11.3v-22.3L648.8,75.5z
			 M638.2,157.6l-8.7-25.2l28.6,10.1L638.2,157.6z M596.8,137.1l28-5.7l9.5,27.4h-19.3L596.8,137.1z M701.3,113.8
			c-0.4,0-0.8,0.1-1.1,0.3l-35.7,23.8l3.6-52.1l39.5,1.9l23.7,17.6v8.5H701.3z M734,117.8h44.3l14.1,22.9l-112,37l0.8-20.9
			L734,117.8z M742.3,198.3c-0.2-0.5-0.5-0.9-1-1.2l-35-18.4c-0.3-0.2-0.6-0.2-0.9-0.2h-14.6L792,145.1L754.6,238L742.3,198.3z
			 M755,248.1l53.2,71.2l-71.2-22.5L755,248.1z M779.9,350.8c-0.4,2.3-4.1,21-5.7,29.2l-38.8-40.7l0.9-38.6l73,23.1
			C790.2,339.4,780.3,348.4,779.9,350.8z M863.1,290.3l22.9-46.7l-0.5,9.3c0,0.2,0,0.5,0.1,0.7l5.9,18.7v23.1l-10.3,16l-11.9,4.5
			l4.1-17.4c0.2-0.8-0.2-1.7-0.9-2.2L863.1,290.3z M869.6,320.1l13.1-4.9l38.6,4.7l-1.7,17l-20.9,11.8L875,327.8L869.6,320.1z"/>
		<path fill="#63B8E7" d="M512,704.9c0.1-0.7-0.2-1.4-0.8-1.8c-18.7-14.2-29.4-21.4-31.6-21.4c-2.8,0-22.1,5.9-28,7.8
			c-0.7,0.2-1.2,0.8-1.4,1.4c-0.2,0.7,0,1.4,0.5,1.9l27.4,26.7c0.4,0.4,0.9,0.6,1.4,0.6c0.3,0,0.5-0.1,0.8-0.2l30.4-13.4
			C511.5,706.2,511.9,705.6,512,704.9z M480.1,715.6l-24-23.4c10.6-3.3,21.4-6.4,23.4-6.6c2.4,0.9,14.8,9.7,26.6,18.6L480.1,715.6z"
			/>
		<path fill="#63B8E7" d="M510,732.7c0.1,0,0.1,0,0.2,0l46.1-5c0.8-0.1,1.5-0.6,1.7-1.4c0.2-0.8,0-1.6-0.6-2.1l-28-24.9
			c-0.4-0.4-1-0.6-1.6-0.5c-0.6,0.1-1.1,0.4-1.4,0.9l-18,29.9c-0.4,0.7-0.4,1.5,0,2.1C508.7,732.3,509.3,732.7,510,732.7z
			 M528.5,703.9l22.9,20.3l-37.5,4.1L528.5,703.9z"/>
		<path fill="#63B8E7" d="M1087.1,194.4c0.4,0.3,0.8,0.4,1.2,0.4c0.5,0,0.9-0.2,1.3-0.5l46.4-40.6c0.7-0.6,0.9-1.6,0.5-2.4
			c-0.4-0.8-1.3-1.3-2.2-1.1l-44.1,8.6c-0.1,0-0.1,0.1-0.2,0.1c-0.1,0-0.2,0.1-0.3,0.1c0,0-0.1,0-0.1,0.1l-24.8,14.1
			c-0.6,0.3-1,0.9-1,1.6c-0.1,0.7,0.2,1.3,0.8,1.7L1087.1,194.4z M1106.8,174l-12.1-12l33.1-6.5L1106.8,174z M1090.3,163.3
			l13.5,13.4l-15.5,13.6l-18.9-15L1090.3,163.3z"/>
		<path fill="#63B8E7" d="M1289.4,258.1c0.4,0.4,0.9,0.6,1.4,0.6c0.2,0,0.4,0,0.6-0.1c0.7-0.2,1.2-0.9,1.4-1.6l7.2-48.7l9.6-9h17.2
			c0.6,0,1.1-0.2,1.5-0.6l19.4-20.5c0.4-0.4,0.6-1,0.5-1.5c0-0.6-0.3-1.1-0.8-1.4l-20.7-16c-0.6-0.4-1.3-0.5-2-0.3
			c-0.7,0.3-1.1,0.9-1.2,1.6l-2.5,20.3l-18.6,3.7c-0.2,0-0.4,0.1-0.5,0.2c0,0,0,0,0,0c0,0,0,0-0.1,0.1c-0.1,0-0.2,0.1-0.2,0.1
			l-26.7,22.2c-0.1,0-0.1,0.1-0.1,0.2c0,0-0.1,0.1-0.1,0.1c-0.1,0.2-0.3,0.4-0.3,0.6c0,0,0,0,0,0c-0.1,0.2-0.1,0.5-0.1,0.7
			c0,0,0,0.1,0,0.1c0,0,0,0.1,0,0.1c0,0.1,0,0.1,0,0.2l2.5,11.6l-10,11.9c-0.7,0.8-0.6,2,0.1,2.7L1289.4,258.1z M1302.2,189.7
			l4.1,7.2l-9,8.4l-15.1,1L1302.2,189.7z M1280.5,219.9l-2-9.3l17.2-1.1l-2.4,16.1L1280.5,219.9z M1323.2,184.5
			c0.8-0.2,1.5-0.9,1.6-1.7l2.2-18.3l16.2,12.5l-17.3,18.3h-16l-4.1-7.3L1323.2,184.5z M1279.3,223.7l13.4,6l-3.4,22.8l-18.6-18.6
			L1279.3,223.7z"/>
		<path fill="#63B8E7" d="M1677.4,792.4c0,0.2,0.1,0.4,0.2,0.6c0,0,0,0,0,0c0.1,0.2,0.2,0.4,0.4,0.5c0,0,0,0,0,0l16.6,16.6l-3.1,17
			c0,0,0,0,0,0c0,0,0,0,0,0.1c0,0.2,0,0.4,0,0.7c0,0,0,0.1,0,0.1c0,0,0,0,0,0.1c0.1,0.2,0.1,0.4,0.2,0.5c0,0,0,0,0,0
			c0.1,0.1,0.2,0.3,0.3,0.4l33.4,30c0.6,0.5,1.4,0.7,2.1,0.3c0.7-0.3,1.2-1,1.2-1.8l0.7-38.1c0-0.1,0-0.2,0-0.3c0-0.1,0-0.2,0-0.2
			c0,0,0-0.1-0.1-0.1c0-0.1-0.1-0.3-0.2-0.4c-0.1-0.1-0.1-0.2-0.2-0.3c0,0,0-0.1-0.1-0.1l-31.5-34.8v-25l30.1,25.3
			c0.7,0.6,1.8,0.6,2.6,0l28.7-23.4c0,0,0,0,0,0c0.1-0.1,0.1-0.1,0.2-0.2c0.1-0.1,0.2-0.2,0.3-0.3c0-0.1,0.1-0.2,0.1-0.2
			c0.1-0.1,0.1-0.3,0.1-0.4c0,0,0-0.1,0-0.1c0,0,0-0.1,0-0.1c0-0.2,0-0.3-0.1-0.5c0-0.1,0-0.2-0.1-0.2c0,0,0-0.1,0-0.1l-16-36.7
			c-0.1-0.3-0.4-0.6-0.6-0.8l-21-15.6l60.9-37.2c0.1-0.1,0.3-0.2,0.4-0.3c0,0,0,0,0,0c0,0,0,0,0,0c0.1-0.1,0.3-0.3,0.3-0.5L1814,602
			l0,0l0,0c0.1-0.2,0.2-0.4,0.2-0.7c0-0.1,0-0.1,0-0.2c0-0.2,0-0.4-0.1-0.5c0,0,0-0.1,0-0.1c0,0,0-0.1-0.1-0.1
			c-0.1-0.2-0.2-0.3-0.3-0.5c0,0-0.1-0.1-0.1-0.1c0,0,0,0,0,0l-33.1-33.1l14.8-34.1c0.2-0.5,0.2-1.2-0.1-1.7c-0.3-0.5-0.8-0.9-1.3-1
			l-26.7-5.9l14-15.6l29.5,17.6l21.1,36.9c0.4,0.7,1.2,1.1,2,1c0.8-0.1,1.5-0.7,1.7-1.5l8-34.7c0.1-0.6,0-1.3-0.5-1.8l-17.4-18.7
			l3.2-33.2l21.6-23.5c0.2-0.3,0.4-0.6,0.5-0.9l8.7-39.4c0-0.2,0.1-0.4,0-0.6l-2-33.4c0,0,0-0.1,0-0.1c0-0.3-0.1-0.5-0.2-0.7
			c0,0,0-0.1,0-0.1c-0.1-0.2-0.2-0.3-0.4-0.5c-0.1,0-0.1-0.1-0.2-0.1c0,0,0-0.1-0.1-0.1l-50-32.5l23.1-55.2l51.5-28.4
			c0,0,0.1-0.1,0.1-0.1c0.1,0,0.1-0.1,0.2-0.2c0.1-0.1,0.2-0.2,0.3-0.3c0.1-0.1,0.1-0.1,0.1-0.2c0.1-0.2,0.1-0.3,0.2-0.5
			c0,0,0-0.1,0-0.1c0,0,0,0,0,0c0-0.2,0-0.5,0-0.7l-5.7-26.8l47.5-37l3,41.4l-18,79.2c-0.1,0.6,0,1.2,0.4,1.7l36.1,44.7
			c0.5,0.6,1.3,0.9,2.1,0.7c0.8-0.2,1.3-0.8,1.5-1.6l10.7-63.4c0.1-0.5,0-1-0.3-1.4l-18.9-31.3l8.3-28.2l33.1-42.4
			c0.1-0.1,0.1-0.2,0.2-0.3c0,0,0.1-0.1,0.1-0.1c0,0,0,0,0,0l10.7-26.7c0.2-0.5,0.2-1,0-1.5l-10.2-25.5l14.5-15.1l23.8,1.9
			c0,0,0.1,0,0.1,0s0.1,0,0.1,0c0.1,0,0.2,0,0.3,0c0.1,0,0.2,0,0.2,0c0,0,0,0,0.1,0c0,0,0.1,0,0.1,0c0.2-0.1,0.4-0.2,0.5-0.3
			c0,0,0.1-0.1,0.1-0.1c0.2-0.1,0.3-0.3,0.4-0.5c0,0,0,0,0-0.1c0,0,0,0,0,0l13.4-24.7c0.5-0.9,0.2-2.1-0.7-2.6l-24.7-16
			c0,0,0,0-0.1,0c0,0-0.1,0-0.2-0.1c-0.2-0.1-0.3-0.1-0.5-0.2c-0.1,0-0.1,0-0.2,0c-0.1,0-0.1,0-0.2,0l-36.5,0l-84.1-8
			c0,0-0.1,0-0.1,0c-0.1,0-0.1,0-0.2,0c-0.1,0-0.2,0-0.4,0.1c-0.1,0-0.1,0-0.2,0.1c-0.1,0.1-0.3,0.1-0.4,0.2c0,0-0.1,0-0.1,0.1
			c0,0,0,0,0,0c-0.1,0.1-0.3,0.2-0.4,0.4l-29.7,38.7l-24.5-13.8c-0.1-0.1-0.3-0.1-0.4-0.1c-0.1,0-0.2-0.1-0.2-0.1
			c-0.2,0-0.3,0-0.5,0c-0.1,0-0.2,0-0.2,0c0,0,0,0,0,0l-149.5,34c-0.9,0.2-1.5,1-1.6,1.8l-2.1,38.9l-10.7-29.5c0,0,0,0,0,0
			c-0.1-0.2-0.2-0.4-0.3-0.5c0,0,0,0,0,0c0,0,0,0-0.1,0c-0.1-0.1-0.2-0.3-0.4-0.4c0,0-0.1-0.1-0.2-0.1c-0.1-0.1-0.2-0.1-0.4-0.2
			c-0.1,0-0.1,0-0.2,0c-0.1,0-0.3-0.1-0.4-0.1c0,0,0,0-0.1,0l-103.5-0.7l-5.5-13.5c-0.3-0.8-1-1.2-1.9-1.2h-60.1
			c-0.4,0-0.8,0.1-1.1,0.4l-67,46.8c0,0,0,0-0.1,0c0,0-0.1,0.1-0.1,0.1l-32.3,22.5c-0.7,0.5-1,1.3-0.8,2.1l2.9,13.4l-17.4,3.6
			c-0.6,0.1-1.2,0.6-1.4,1.1c-0.3,0.6-0.2,1.3,0.1,1.8l25.5,45l-9.7,16.2l-41.7-66c-0.4-0.7-1.2-1-1.9-0.9c-0.8,0.1-1.4,0.6-1.7,1.4
			L1341,236c-0.2,0.6-0.1,1.2,0.3,1.8l21.4,30.6l-134.1,12.4c-0.1,0-0.1,0-0.2,0c-0.1,0-0.2,0-0.3,0.1c-0.1,0-0.3,0.1-0.4,0.2
			c-0.1,0-0.2,0.1-0.2,0.1c-0.1,0.1-0.3,0.3-0.4,0.4c0,0-0.1,0.1-0.1,0.1c0,0,0,0,0,0c-0.1,0.2-0.2,0.4-0.3,0.7l-4.5,25.6
			l-21.3-30.6c-0.3-0.5-0.8-0.8-1.4-0.8l-40.1-4.5c0,0-0.1,0-0.1,0c-0.2,0-0.4,0-0.5,0c0,0-0.1,0-0.1,0l-59,16.7
			c-0.1,0-0.1,0.1-0.2,0.1c-0.1,0-0.2,0-0.2,0.1c0,0-0.1,0.1-0.1,0.1c0,0-0.1,0-0.1,0.1l-34.5,25.4c-0.4,0.3-0.7,0.8-0.8,1.4
			c-0.1,0.5,0.1,1.1,0.4,1.5l14.5,17.5l-42.7,24.8c-0.6,0.3-0.9,0.9-1,1.5l-4,37.4c-0.1,0.6,0.1,1.1,0.5,1.6
			c0.4,0.4,0.9,0.7,1.5,0.7h45.6l13.4,23c0.3,0.6,1,1,1.6,1c0.7,0,1.3-0.3,1.7-0.8l27.4-38.7c0.4-0.5,0.5-1.3,0.2-1.9l-10.3-26.3
			l21-28.7l2,17.3l-9,16.1c-0.4,0.8-0.3,1.7,0.3,2.4l13.8,14.5l10,18.2l-7.9,14.5l-49.5,26.7l-28.6-7.8c-0.7-0.2-1.4,0-1.9,0.5
			l-23.3,22.6l-21.1,18.5l-6.9-3l13.4-14c0.6-0.6,0.7-1.6,0.3-2.4l-15.4-26.7c0,0,0,0,0-0.1l0-0.1l-22.7-32.7c-0.4-0.6-1.2-1-2-0.8
			c-0.8,0.1-1.4,0.7-1.6,1.5l-8.4,31.2l-16.6,8.3c-0.2,0.1-0.3,0.2-0.4,0.3l-20.7,18.7c-0.7,0.7-0.9,1.7-0.3,2.6l9.3,14.7
			c0,0,0.1,0,0.1,0.1c0.2,0.2,0.3,0.4,0.5,0.5c0,0,0,0,0,0c0.2,0.1,0.5,0.2,0.7,0.3c0,0,0.1,0,0.1,0l21.7,2.6l14.6,14.3l22,19.4v22
			l-52.9,5.2c-0.7,0.1-1.4,0.5-1.7,1.2c-0.3,0.7-0.2,1.5,0.3,2l42.7,50.7c0.4,0.5,1,0.7,1.6,0.7c0.6,0,1.2-0.3,1.5-0.8l21-28.2
			l54.7-20.6l25.2,36.8c0.6,0.9,1.8,1.1,2.7,0.6l25-14.7l46.4,30c0.1,0,0.1,0.1,0.2,0.1c0.1,0,0.1,0.1,0.2,0.1c0,0,0.1,0,0.1,0
			c0.1,0,0.3,0.1,0.4,0.1c0.1,0,0.1,0,0.2,0c0,0,0,0,0.1,0c0,0,0.1,0,0.1,0l35.3-3.3l18.7,13.7l1.7,17l-61.7,3.2l-13.4-15.9
			c-0.4-0.4-0.9-0.7-1.5-0.7c0,0,0,0,0,0c-0.6,0-1.1,0.3-1.5,0.7l-20.7,23.8l-20.5-18.6c-0.1-0.1-0.2-0.1-0.3-0.2
			c-0.1,0-0.1-0.1-0.2-0.1c0,0,0,0,0,0c-0.2-0.1-0.4-0.1-0.6-0.2c0,0-0.1,0-0.1,0c0,0,0,0,0,0l-28.4-0.6l-5-24.5
			c-0.2-0.9-1-1.6-2-1.6h-38c0,0,0,0,0,0h0c0,0-0.1,0-0.1,0c-0.2,0-0.3,0-0.5,0.1c-0.1,0-0.1,0-0.2,0.1c-0.1,0-0.2,0.1-0.2,0.1
			c0,0-0.1,0-0.1,0.1c0,0-0.1,0-0.1,0l-21.1,14.5l-59.8,19.3c-0.1,0-0.1,0.1-0.2,0.1c-0.1,0.1-0.3,0.1-0.4,0.2c0,0-0.1,0-0.1,0.1
			l-36.1,31.4c0,0-0.1,0.1-0.1,0.1c-0.1,0.1-0.2,0.2-0.2,0.3c0,0.1-0.1,0.1-0.1,0.2l-26,50.7c-0.2,0.3-0.2,0.7-0.2,1l2,48.1
			c0,0,0,0,0,0c0,0.1,0,0.3,0.1,0.4c0,0,0,0.1,0,0.1c0,0,0,0,0,0c0.1,0.2,0.1,0.3,0.2,0.5c0,0,0,0,0,0l29.4,45.4
			c0.1,0.2,0.3,0.4,0.4,0.5l32.7,25.6c0,0,0,0,0,0c0,0,0,0,0,0c0.1,0.1,0.2,0.1,0.2,0.1c0.1,0,0.2,0.1,0.3,0.1c0.1,0,0.2,0,0.3,0.1
			c0.1,0,0.1,0,0.2,0.1l64.2,4.5h49.7l-13.5,31.3c0,0,0,0.1,0,0.1c0,0.1,0,0.1-0.1,0.2c0,0.2-0.1,0.3-0.1,0.5c0,0,0,0.1,0,0.1
			c0,0,0,0,0,0.1c0,0.2,0.1,0.4,0.2,0.6c0,0,0,0.1,0,0.1c0.1,0.2,0.2,0.4,0.4,0.5l54.4,53.1l-14.7,30.1c-0.1,0.2-0.1,0.3-0.2,0.5
			l-6,33.6c0,0,0,0.1,0,0.1c0,0,0,0,0,0.1c0,0.1,0,0.1,0,0.2c0,0.1,0,0.2,0,0.3l10,61.9c0,0,0,0,0,0c0,0.1,0,0.1,0.1,0.2
			c0,0.1,0.1,0.2,0.1,0.3c0,0,0,0.1,0,0.1c0,0.1,0.1,0.1,0.2,0.2c0,0,0.1,0.1,0.1,0.1l26.2,28.8l0.7,43c0,0.6,0.3,1.1,0.7,1.5
			c0.4,0.3,0.8,0.5,1.3,0.5c0.1,0,0.2,0,0.4,0l64.1-11.7c0,0,0.1,0,0.1-0.1c0.1,0,0.3-0.1,0.4-0.2c0.1,0,0.2-0.1,0.3-0.2
			c0,0,0.1,0,0.1-0.1c0.1-0.1,0.2-0.2,0.3-0.3c0,0,0,0,0.1-0.1l51.4-74.8c0,0,0-0.1,0.1-0.1c0-0.1,0.1-0.1,0.1-0.2
			c0-0.1,0-0.1,0.1-0.2c0,0,0-0.1,0.1-0.1l7.9-30.3l31.8-40.9c0-0.1,0.1-0.1,0.1-0.2c0,0,0.1-0.1,0.1-0.1c0,0,0,0,0-0.1
			c0.1-0.2,0.2-0.4,0.2-0.6l13.3-87.1l18.4-23.6c0,0,0,0,0,0l0,0c0.1-0.1,0.2-0.3,0.3-0.4l27.5-62.9c0,0,0,0,0,0l4.3-10l23.5-15.7
			c0.1,0,0.1-0.1,0.2-0.2c0.1-0.1,0.1-0.1,0.2-0.2c0,0,0.1-0.1,0.1-0.1l45.4-56.1c0,0,0-0.1,0.1-0.1c0,0,0.1-0.1,0.1-0.1
			c0.1-0.2,0.2-0.4,0.3-0.6c0,0,0,0,0,0c0-0.2,0-0.4,0-0.7c0,0,0-0.1,0-0.1c0,0,0-0.1,0-0.1c0-0.1-0.1-0.1-0.1-0.2
			c-0.1-0.1-0.1-0.3-0.2-0.4c0-0.1-0.1-0.1-0.1-0.1c-0.1-0.1-0.1-0.2-0.2-0.2c-0.2-0.1-0.3-0.2-0.5-0.3c-0.1,0-0.1-0.1-0.2-0.1
			l-53-17.9l-37.3-34.5l14.5-7.4l22.3,23.6c0,0,0.1,0.1,0.1,0.1c0,0,0,0.1,0.1,0.1c0,0,0.1,0,0.2,0.1c0.1,0.1,0.3,0.2,0.4,0.2
			c0.1,0,0.2,0.1,0.3,0.1c0,0,0.1,0,0.1,0l123.2,15.8l3.3,70.4c0,0,0,0.1,0,0.1c0,0,0,0.1,0,0.1c0,0.1,0.1,0.2,0.1,0.2
			c0,0.1,0.1,0.2,0.1,0.3c0.1,0.1,0.1,0.2,0.2,0.3c0,0.1,0.1,0.1,0.1,0.2l46.1,47.4c0.4,0.4,0.9,0.6,1.5,0.6c0.6,0,1.1-0.3,1.5-0.7
			l16.7-19.4c0.3-0.3,0.5-0.8,0.5-1.2l2-37.8l58.7-48.4l48.3,46.4L1677.4,792.4z M1560.6,734.1l-62.4-56.3l118,10.4L1560.6,734.1z
			 M1497.7,745l-3-65.1l61.4,55.4L1497.7,745z M1347.7,635.3l53.7-22l-33.9,42.9L1347.7,635.3z M1375.7,725.3l-7.5-41.7l46.3,15.6
			L1375.7,725.3z M1409,707.7l-33.3,41.2l0.5-19.1L1409,707.7z M1372,727.5l-62.8,26.9l55.2-69.1L1372,727.5z M1283.9,952.8
			l-51.8-27.2l63.9-52.5L1283.9,952.8z M1254.1,992.9l-22-62.8l50.3,26.4L1254.1,992.9z M1244.4,1023.8l-30.2-31.7l36.7,6.6
			L1244.4,1023.8z M1194.7,1098l-20.8-70.7l67.8,2.4L1194.7,1098z M1103.8,1036.7l-8.9-55.2l54.4,5.2L1103.8,1036.7z M960,662.8
			l-37.7-11.7l30.7-26.7L960,662.8z M956.6,621.9l52.1-16.8L963.7,661L956.6,621.9z M1033.7,590.3l-0.9,68.4l-65.9,4.8l48.9-60.9
			L1033.7,590.3z M1128.2,633.2l-43.4,37.8l25-54.5L1128.2,633.2z M1025.3,714.4l-57.4-46.9l64.6-4.7L1025.3,714.4z M1023.7,718.3
			l-54.2,48.2l-4.7-96.4L1023.7,718.3z M1026.6,721l32.5,33.8l-85.1,12.9L1026.6,721z M1029.8,718.5l46.4-35.1l-14,68.7
			L1029.8,718.5z M1029.4,713.7l7-50.3l38.7,15.7L1029.4,713.7z M1182.2,663.9l31.3-7l-61.8,52.3L1182.2,663.9z M1201.7,703.3
			l3.5,46l-58-28.9L1201.7,703.3z M1143.7,723.2l59.1,29.5l-62.7,28L1143.7,723.2z M1136.1,781l-67.5-24.9l71.2-32.8L1136.1,781z
			 M1205.5,755.8l0.9,98.9l-65.2-70.3L1205.5,755.8z M1209.3,749.4l-3.6-46.3l63.7,12.5L1209.3,749.4z M1202,699l-51.2,16.1
			l65.7-55.6L1202,699z M1220.7,648l-12-23.6l20.5-1.1L1220.7,648z M1205.4,626.6l12.7,25l-32.9,7.4L1205.4,626.6z M1181.4,657.5
			l-11.3-31.1l31.7-1.6L1181.4,657.5z M1143.3,714.5l-9.5-77.5l44.4,25.8L1143.3,714.5z M1139.4,716l-56.9-37.6l47.2-41.2
			L1139.4,716z M1081.2,669.5v-54.9l24.9,0.6L1081.2,669.5z M1077.2,675.6l-39-15.8l39-42.2V675.6z M1036.8,655.4l0.9-65.4l38.3,23
			L1036.8,655.4z M965.5,768.1l-67.8-18.5l63.1-78.5L965.5,768.1z M969.3,772.5l84.5-12.8l-94.5,57.8L969.3,772.5z M1080.5,681.9
			l57.3,37.8l-71.7,33.1L1080.5,681.9z M1133.5,784.3l-58.8,38.5l-8.9-63.5L1133.5,784.3z M1137.6,786.4l64.9,69.9l-124.4-31
			L1137.6,786.4z M1188.7,857l-82.5-3.6l-25.8-23.4L1188.7,857z M1201.5,861.6l-86.1,49.5l-7.7-53.6L1201.5,861.6z M1103.7,857.6
			l7.4,51.2l-48.1-47L1103.7,857.6z M1207.3,862.9l18.4,60.8l-105.5-10.7L1207.3,862.9z M1171.9,1021.7l-15.3-34.4l47.3,3.4
			L1171.9,1021.7z M1208.5,991.9l32.1,33.7l-64.6-2.3L1208.5,991.9z M1208.9,987.1C1208.8,987.1,1208.8,987.1,1208.9,987.1
			c-0.1,0-0.2,0-0.2,0l-49.9-3.6l68.8-54.2l22.8,65.2L1208.9,987.1z M1223.4,927.5L1154,982l-36.5-65.4L1223.4,927.5z M1152.8,988.7
			l15.5,35l-60.1,14L1152.8,988.7z M1190.8,1098.7l-58.3-28.8l37.8-40.8L1190.8,1098.7z M1297.4,866.8l-67.8,55.7l-18.5-61
			l101.8-14.6L1297.4,866.8z M1315.3,842.5l-99.5,14.3l93.7-71.8L1315.3,842.5z M1313.4,783.3h28.5l-23.2,53.1L1313.4,783.3z
			 M1210.5,855.8l-1-102l63.6-35.8l0.4,23.2c0,0.5,0.2,0.9,0.5,1.3l34.1,38.4L1210.5,855.8z M1206.2,699.1l15.5-42.2l48,54.6
			L1206.2,699.1z M1232.6,625.8l88.5,19.1l-53,39.2l-44.7-31.8L1232.6,625.8z M1083.3,519l-40.2-4.4v-55.2l55.3,48.8L1083.3,519z
			 M1073.1,534.8l-50.9,19.2l20-35.4l38.3,4.2L1073.1,534.8z M1230.2,286l55.5,33.8l-60-8.4L1230.2,286z M1561.9,144.5l84.4,0.5
			l-109.1,21.8L1561.9,144.5z M1677.7,181.4l-57,56.2l45-89.4L1677.7,181.4z M1888.2,78l32.7,102.3l-60.1-66.6L1888.2,78z
			 M1977.9,133l-81.4-56.5l74.9,7.1L1977.9,133z M1926.6,185l-34-106.2l84.6,58.7L1926.6,185z M1869.2,206.4
			c-3.8-11.6-8.7-26.7-13.6-41.7c-5.2-15.8-10.3-31.7-14.2-43.5c-1.9-5.9-3.6-10.9-4.7-14.3c-0.5-1.5-0.9-2.7-1.2-3.6l21,11.8
			L1869.2,206.4z M1739.6,427.1l112.9-47.4l-26.8,90.5L1739.6,427.1z M1781.5,502.8l-41.6-71.1l83.1,41.6L1781.5,502.8z
			 M1780.9,662.6l-37.6-35.3l65.1-22.7L1780.9,662.6z M1680.9,789.1l-6.9-49.6l19.3,15.6v27.8L1680.9,789.1z M1694.6,750.9l-19.9-16
			l38.6-24.8L1694.6,750.9z M1627.4,685.7l108.9-55.4l-19.7,72L1627.4,685.7z M1344.5,632.3l-56-43.7l112.1,20.6L1344.5,632.3z
			 M1210.1,547.2l48.7,1.7l-47,33.8L1210.1,547.2z M1208.2,543.1c-0.1,0-0.1,0-0.2,0h-25l5.3-16.8l20.3-13.9h32.3l20.1,32.5
			L1208.2,543.1z M1544.8,578.3l40,16.3l-85.9,72.6L1544.8,578.3z M1609.9,255.5l20.9,113.3l-101.2-54.3L1609.9,255.5z
			 M1630.5,373.2l-69.6,93.7l-32.2-148.3L1630.5,373.2z M1585.7,590.7l-39.7-16.1l14.2-92.4L1585.7,590.7z M1621.5,681.2l-29.7-84.2
			l59.5,17.4L1621.5,681.2z M1655.2,615.4l77.8,12.2l-107.6,54.7L1655.2,615.4z M1653.5,611l-58.8-17.3l157.2-62L1653.5,611z
			 M1562.8,475.5l95.7,51.9l-68.8,62.7L1562.8,475.5z M1565.7,472.6l81.3-15.4l12.2,66.1L1565.7,472.6z M1564.5,468.7l67.8-91.3
			l14,75.8L1564.5,468.7z M1614.2,256.9l104.7,81.7l14.6,85.4l-98.2-52.7L1614.2,256.9z M1721.5,332.3l-38.2-146.1l91.2,55.8
			L1721.5,332.3z M1717.3,332.2l-103.5-80.8l1.3-2.7l63.8-63L1717.3,332.2z M1610.2,248.1l-75.7-76.6l127.9-25.5l-50.5,100.5
			L1610.2,248.1z M1608.1,251.7C1608.1,251.7,1608.1,251.8,1608.1,251.7l-80.2,59l4.4-135.8L1608.1,251.7z M1557.3,469.2
			l-125.8-22.3l93.3-127.3L1557.3,469.2z M1555.5,472.9l-145.2,130.5l19.4-152.8L1555.5,472.9z M1265.3,544.2l-20-32.3l84.2-16.6
			L1265.3,544.2z M1403.6,605.7l-119.6-22l53.5-88.1L1403.6,605.7z M1340.4,492.5l85.1-40.9l-19.1,150.8L1340.4,492.5z
			 M1338.2,489.1l-64.9-92l149.4,51.5L1338.2,489.1z M1270.7,392l25.1-65.4l124,116.7L1270.7,392z M1334.1,490.3l-92.3,18.1H1208
			c-0.4,0-0.8,0.1-1.1,0.3l-13.6,9.3l74.9-121.2L1334.1,490.3z M1183.7,524l-45.7,17.8l16.6-68.2L1183.7,524z M1134.2,541
			l-29.5-32.3l45.2-32.3L1134.2,541z M1183.5,528.5l-4.7,14.6h-32.9L1183.5,528.5z M1181.7,547.1h22.3l-27.5,36.1l2.1-26.3
			L1181.7,547.1z M1330.3,499.7l-49.2,81.1l-13.9-33L1330.3,499.7z M1557,476.9l-15,97.3l-127.2,30.6L1557,476.9z M1540,578.8
			l-48.3,93.4l-79.6-62.7L1540,578.8z M1587.6,597.4l30.7,87l-121-10.7L1587.6,597.4z M1658.8,611.9l101.4-81.6l-22.3,94
			L1658.8,611.9z M1598,588.1l64.8-59.1l89.6-1.8L1598,588.1z M1663.7,525l-12.2-66.1l105.1,64.3L1663.7,525z M1650.2,452.2
			l-14-75.9l93.5,50.2L1650.2,452.2z M1723.1,339.6l77,4.9l-63.1,76.4L1723.1,339.6z M1724.1,335.7l52.3-89.2l25.1,94.2
			L1724.1,335.7z M1785.7,174.6l45.8-70.6c3.3,9.6,25.9,79.1,39.3,120.3L1785.7,174.6z M1868.2,227.4l-88.9,11.6l5.2-60.5
			L1868.2,227.4z M1783,171.3l-28.1-52.5l73-16.6L1783,171.3z M1779.6,173.4l-93.9,6.1l65.7-58.9L1779.6,173.4z M1780.6,177.4
			l-5.2,60.5l-89-54.4L1780.6,177.4z M1524,308.7l-92.3-132.2l96.7-4.2L1524,308.7z M1520.1,310.1L1408,261.5l20.8-82.1
			L1520.1,310.1z M1429,443.5l-32.8-158.1l126.2,30.6L1429,443.5z M1420.2,420.7l-45.8-127.9l17.8-7.3L1420.2,420.7z M1423.2,441.1
			l-124.6-117.3l72-29.5L1423.2,441.1z M1308.9,315.3l56.2-41.8l4.4,17L1308.9,315.3z M1294.9,320.7l-60-36.5l124.4-11.5
			L1294.9,320.7z M1292.2,324.7l-24.5,63.8l-40.7-72.9L1292.2,324.7z M1186.7,521.2l-30.9-53.5l-9-53.1l117.2-18.7L1186.7,521.2z
			 M1151.3,464.9l-53-24.7l44.8-24.2L1151.3,464.9z M1151.6,469.4l-0.2,1l-48.1,34.3l-7-61.1L1151.6,469.4z M1101.4,511l31.4,34.3
			l-6.6,10.7l-39.1-34.8L1101.4,511z M1136.4,547.1l41.2,0l-2.8,8.7c0,0.1-0.1,0.3-0.1,0.4l-2.4,30l-42.9-27.8L1136.4,547.1z
			 M1206.3,550.7l1.6,34l-29.6,2.7L1206.3,550.7z M1263.9,550.2l13.9,33l-61.4,1.2L1263.9,550.2z M1280.8,587.7l56.5,44L1239,620
			L1280.8,587.7z M1408,611.3l77.5,61l-114.1-14.7L1408,611.3z M1712.7,705.7l-41.2,26.5l-44.1-42.3L1712.7,705.7z M1697.6,828.6
			l27.8-6.5l-0.5,31.1L1697.6,828.6z M1723.7,818.3l-27.8,6.5l2.8-15c0.1-0.6-0.1-1.3-0.6-1.8l-15.4-15.4l12.2-6.1L1723.7,818.3z
			 M1728.8,779.5l-27.4-23l50.9,3.8L1728.8,779.5z M1739.8,723.3l14.5,33.2l-55.9-4.2l20.5-44.5L1739.8,723.3z M1721.3,700.3
			l19.2-70l37.7,35.3L1721.3,700.3z M1808.5,600.3l-64.2,22.4l34.2-52.4L1808.5,600.3z M1790.7,533.2l-14.3,33l-32.4,49.7l20.9-88.4
			L1790.7,533.2z M1763.1,522.5l-109.7-67.1l80.4-26.1l44.5,76.1L1763.1,522.5z M1839.4,527.7l-6.6,28.7l-18.8-32.9
			c-0.2-0.3-0.4-0.6-0.7-0.7l-28.7-17.1l40-28.4l-2.9,30.4c-0.1,0.6,0.1,1.1,0.5,1.6L1839.4,527.7z M1847.1,448l-15.8,17.2l23-77.6
			l1.3,21.7L1847.1,448z M1851.3,375.8l-109.9,46.1l63.1-76.5L1851.3,375.8z M1827.3,283.6c-0.4,0.2-0.7,0.6-0.9,1l-21.8,52
			l-24.7-92.9l94.3,14L1827.3,283.6z M1877.7,254.3l-86.1-12.8l81.1-10.6L1877.7,254.3z M1875.8,224.9L1861.2,120l61.6,68.3
			L1875.8,224.9z M1945.5,232.1c-0.2,0.2-0.3,0.4-0.3,0.7l-8.7,29.4c-0.2,0.5-0.1,1.1,0.2,1.6l19,31.4l-9.8,58.3l-32.6-40.5
			l17.8-78.5c0-0.2,0.1-0.4,0-0.6l-3.2-43.2l48.6,1.8L1945.5,232.1z M1989,163.9l-9.9,24.7l-48.5-1.8l49.1-46.1L1989,163.9z
			 M1996.6,118.5c-0.6-0.1-1.2,0.2-1.6,0.6l-13.1,13.7l-6.5-49h32.9l10.2,36.5L1996.6,118.5z M2021.8,117.2l-8.6-30.9l18.7,12.1
			L2021.8,117.2z M1744.8,121.1l-62.5,56.1l2.3-42.4L1744.8,121.1z M1495.7,129.8h58.1l5,12.1l-29.1,26.3l-94.9,4.1L1495.7,129.8z
			 M1382.7,218l16.7-3.4c0.5-0.1,1-0.4,1.3-0.9c0.3-0.4,0.4-1,0.3-1.5l-3.1-14.1l26.8-18.7l-19.8,77.9L1382.7,218z M1406.4,265.2
			l97.1,42.1l-106.8-25.9L1406.4,265.2z M1345.1,236.3l5.7-17.7l39.8,63.1l-17.5,7.2l-5-19.4c0,0,0-0.1,0-0.1c0-0.1-0.1-0.1-0.1-0.2
			c0-0.1-0.1-0.2-0.1-0.3c0,0,0-0.1,0-0.1L1345.1,236.3z M1221.7,314.2l42.3,75.7l-88.2-26l-14.1-87.6l36.5,4.1L1221.7,314.2z
			 M1170.9,359.2l-33.3-36.4l20.7-42.2L1170.9,359.2z M1134.6,319.8l-30.4-28.1l51.3-14.5L1134.6,319.8z M1139.8,344.9l-1.8-15.8
			l26.6,29.1L1139.8,344.9z M1068.7,316.5l30.1-22.2l9,58l-24.6-18.3L1068.7,316.5z M1039,362.7l38.3-22.3l-26.7,56.4h-15.2
			L1039,362.7z M1119,383.9l-25,35.3l-12.5-21.3c-0.4-0.6-1-1-1.7-1H1055l27.6-58.4l26.3,19.6L1119,383.9z M1111.8,351.7l-8.6-55.6
			l29.4,27.3L1111.8,351.7z M1138.7,348.8l30.5,16.4l-26,10l-12.1-12.7L1138.7,348.8z M1145.4,378.6l23.4-9l-15.4,23.4L1145.4,378.6
			z M1155,397.9l19.8-30.1l84.2,24.8l-110.7,17.7L1155,397.9z M1065,434.5l27,7.4l7.1,61.6l-55-48.5L1065,434.5z M1008.6,466.5
			l-13-17.9l12.6-18l13,22.7L1008.6,466.5z M970.8,469l-14.9-1.8l36.7-16.1l12.1,16.7L970.8,469z M986.5,398.9l19.5,28l-12.8,18.3
			l-14-19.3L986.5,398.9z M960.8,436.6l15.6-7.8l13.7,19l-41,18l-7.5-11.8L960.8,436.6z M987.1,484.2l-11.7-11.4l32.6-1.2l10.3,4.5
			c0.7,0.3,1.5,0.2,2.1-0.3l18.7-16.4v55.7l-28.7,12.3v-21.7c0-0.6-0.2-1.1-0.7-1.5L987.1,484.2z M996.3,583.3l-38.6-45.9l51-5
			c0.1,0,0.2-0.1,0.3-0.1c0.1,0,0.2,0,0.3-0.1l27.3-11.7l-20.4,36.1L996.3,583.3z M1101.1,571.8l-24.2-35.4l7.4-12.2l38.9,34.6
			L1101.1,571.8z M1216,588.4l58.8-1.1l-40.9,31.7l-1.8-18c-0.1-0.6-0.4-1.1-0.8-1.4L1216,588.4z M1153.2,610.9l12.3,14.6l11.7,32
			l-42.9-24.9L1153.2,610.9z M1076.3,608.5l-33.3-20h29.2L1076.3,608.5z M919.3,654.3l39.9,12.4L896,745.3l-1.8-42.2L919.3,654.3z
			 M898.8,754l66.5,18.1l-10.2,46l-29.9-23.4L898.8,754z M1020.6,824.2l-57.8-4.1l99-60.6l9.1,64.6L1020.6,824.2z M1073.9,829.5
			l26.8,24.3l-39,4L1073.9,829.5z M1100.4,946.3l13.6-27.7l35.8,64.1l-55-5.3L1100.4,946.3z M1106.3,1042.3l59-13.8l-36.1,39
			L1106.3,1042.3z M1131.3,1073.8l56.4,27.9l-55.8,10.2L1131.3,1073.8z M1348.4,769.1c-0.3,0.2-0.6,0.5-0.7,0.9l-4.1,9.3h-31.6
			l-34.5-38.8l-0.5-25.8c0-0.1,0-0.2-0.1-0.4c0-0.1,0-0.1,0-0.2c-0.1-0.3-0.2-0.5-0.4-0.7c0,0,0,0,0,0l-42.7-48.6l32.7,23.3
			l29.9,40.8c0.6,0.9,1.9,1.1,2.8,0.5l56.1-39.1l-54.3,68c-0.6,0.7-0.6,1.7,0,2.5c0.4,0.5,1,0.8,1.6,0.8c0.3,0,0.5-0.1,0.8-0.2
			l68.7-29.5l-0.6,21.9L1348.4,769.1z M1271.9,688.4l86.7-5.3l-60,41.9L1271.9,688.4z M1360.8,678.9l-86,5.3l51-37.7L1360.8,678.9z
			 M1325.6,641.8l-76.5-16.5l88.3,10.5L1325.6,641.8z M1541.7,791.8l-41.9-43.1l58.5-9.7l-1.8,35.6L1541.7,791.8z"/>
		<path fill="#63B8E7" d="M1354.8,976.6c0-0.1,0-0.1,0-0.2c0,0,0-0.1,0-0.1c0,0,0-0.1,0-0.1l-4.7-35.4c-0.1-0.7-0.6-1.3-1.3-1.6
			c-0.7-0.3-1.5-0.1-2,0.3l-41.4,35.4c0,0,0,0-0.1,0.1c-0.1,0.1-0.2,0.3-0.3,0.4c0,0-0.1,0.1-0.1,0.1c0,0,0,0,0,0
			c-0.1,0.2-0.2,0.4-0.2,0.6c0,0,0,0,0,0l-8,56.7c-0.1,0.5,0.1,1.1,0.4,1.5c0.3,0.4,0.8,0.7,1.3,0.8l31,4c0.1,0,0.2,0,0.3,0
			c0.5,0,0.9-0.2,1.3-0.5c0.4-0.4,0.7-0.9,0.7-1.5l1-27.5l21.7-32.2c0-0.1,0-0.1,0.1-0.2c0.1-0.1,0.1-0.2,0.1-0.3
			C1354.8,976.9,1354.8,976.7,1354.8,976.6z M1350.6,974.4h-38.4l34.5-29.5L1350.6,974.4z M1301.1,1031.4l7-49.9l20.7,28.2
			l-0.9,25.1L1301.1,1031.4z M1330.8,1005.6l-20-27.2h38.3L1330.8,1005.6z"/>
		<path fill="#63B8E7" d="M1847.6,749.4c0.2,0,0.5,0,0.7-0.1c0.7-0.3,1.2-0.9,1.3-1.7l4-52.7c0-0.6-0.1-1.1-0.5-1.5
			c-0.4-0.4-0.9-0.6-1.5-0.6h-18.7c-0.5,0-1,0.2-1.4,0.5l-20.7,19.4c-0.4,0.4-0.6,0.9-0.6,1.5c0,0.6,0.2,1.1,0.6,1.5l35.4,33.4
			C1846.6,749.2,1847.1,749.4,1847.6,749.4z M1815.1,714l18.6-17.4h15.7l-3.5,46.4L1815.1,714z"/>
		<path fill="#63B8E7" d="M1822.4,793.6c-0.7-0.3-1.5-0.2-2.1,0.3l-64.1,54.1c-0.1,0.1-0.3,0.3-0.4,0.4c0,0,0,0,0,0
			c-0.1,0.2-0.2,0.4-0.3,0.6c0,0.1,0,0.1,0,0.2c0,0.2-0.1,0.5,0,0.7l6,31.4c0.2,0.9,0.9,1.6,1.8,1.6l36.7,2.7c0,0,0.1,0,0.1,0
			c0.5,0,1-0.2,1.4-0.5l31.7-29.4c0.7-0.7,0.8-1.7,0.3-2.5l-10-16.2v-41.5C1823.6,794.7,1823.1,794,1822.4,793.6z M1819.5,835.8
			l-55,10.3l55-46.4V835.8z M1829.3,853.9l-29.9,27.7l-34.3-2.5l-5.3-27.9l60.8-11.4L1829.3,853.9z"/>
		<path fill="#63B8E7" d="M1663.4,818c-0.6-0.5-1.4-0.7-2.2-0.4c-0.7,0.3-1.2,1-1.2,1.8v39.4c0,0.6,0.3,1.1,0.7,1.5l52.1,44.7
			c0,0,0,0,0.1,0c0.1,0.1,0.3,0.2,0.4,0.2c0.1,0,0.1,0.1,0.2,0.1c0.2,0.1,0.4,0.1,0.7,0.1c0.2,0,0.4,0,0.6-0.1c0,0,0,0,0,0
			c0.2-0.1,0.4-0.2,0.6-0.3l21.4-16c0.5-0.4,0.8-0.9,0.8-1.5c0-0.6-0.2-1.2-0.6-1.6L1663.4,818z M1664,824.1l33,30.6l13.2,42.9
			L1664,858V824.1z M1715.1,900.3l-12.3-40.2l29.5,27.4L1715.1,900.3z"/>
		<path fill="#63B8E7" d="M1929,438.6c-0.3-0.8-1-1.3-1.9-1.3c-1.8-0.8-8.6-6.3-12.3-9.3c-6.8-5.5-7.1-5.7-8-5.7c0,0,0,0,0,0
			c-0.9,0-10.8-1-16.8-1.7c-0.6-0.1-1.2,0.1-1.6,0.6c-0.4,0.4-0.6,1-0.6,1.6l2.2,28.2l-15.1,10.7c-0.5,0.4-0.8,1-0.8,1.6
			c0,0.6,0.3,1.3,0.8,1.6l13.8,9.9l9.5,34.9l-41.1,36.8c-0.6,0.5-0.8,1.4-0.6,2.1c0.3,0.8,1,1.3,1.8,1.3l30,2c0,0,0.1,0,0.1,0
			c0.3,0,0.6-0.1,0.9-0.2l33.4-17c0.2-0.1,0.3-0.2,0.5-0.3c0,0,0,0,0,0c0,0,0,0,0,0c0.2-0.2,0.3-0.3,0.4-0.5c0-0.1,0.1-0.1,0.1-0.2
			c0.1-0.2,0.1-0.4,0.1-0.7l0,0c0,0,0,0,0,0l1.3-35.4c0-0.7-0.3-1.3-0.8-1.7l-30.7-22.6C1929.7,440.4,1929.6,440.3,1929,438.6z
			 M1887.9,548.1l-24.7-1.6l37.1-33.2l18.2,19.3L1887.9,548.1z M1921,498.7l-1.1,29.6l-17.7-18.8l-8.4-30.8L1921,498.7z
			 M1890.2,471.1l-10.8-7.8l13.7-9.7c0.6-0.4,0.9-1.1,0.8-1.8l-2.1-27c4.5,0.5,12.1,1.2,14.3,1.4c0.9,0.6,3.6,2.8,6.1,4.8
			c5.9,4.8,9.4,7.5,11.5,8.9C1918.3,445.2,1901.7,460.6,1890.2,471.1z"/>
		<path fill="#63B8E7" d="M1967.7,926.5C1967.8,926.5,1967.8,926.5,1967.7,926.5c0.2,0.2,0.4,0.3,0.7,0.4c0.1,0,0.2,0,0.2,0
			c0.1,0,0.3,0.1,0.4,0.1c0,0,0.1,0,0.1,0c0,0,0,0,0,0l29.6-1.9l27.4,29.3c0.4,0.4,0.9,0.6,1.5,0.6c0.2,0,0.4,0,0.6-0.1
			c0.7-0.2,1.3-0.9,1.4-1.6l6.8-52.1c0-0.1,0-0.1,0-0.2c0-0.2,0-0.4-0.1-0.5c0-0.1-0.1-0.2-0.1-0.3c0-0.1,0-0.2-0.1-0.3
			c0-0.1-0.1-0.1-0.2-0.2c0,0,0-0.1-0.1-0.2c0,0-0.1-0.1-0.1-0.1c-0.1-0.1-0.3-0.2-0.4-0.3c-0.1,0-0.2-0.1-0.3-0.1
			c-0.2-0.1-0.4-0.1-0.5-0.1c-0.1,0-0.1,0-0.2,0l-25.9,2.6L1962,855c0,0-0.1,0-0.1-0.1c-0.1-0.1-0.3-0.2-0.5-0.3
			c-0.1,0-0.1-0.1-0.2-0.1c-0.1-0.1-0.3-0.1-0.5-0.1c-0.1,0-0.2-0.1-0.3,0c0,0-0.1,0-0.1,0c0,0-0.1,0-0.1,0c-0.1,0-0.2,0.1-0.3,0.1
			c-0.1,0-0.3,0.1-0.4,0.1c-0.1,0.1-0.2,0.2-0.3,0.2c-0.1,0.1-0.2,0.1-0.2,0.2l-30.5,33c-0.4,0.4-0.6,0.9-0.5,1.4
			c0,0.5,0.3,1,0.7,1.4L1967.7,926.5z M2026.2,948.5l-23.5-25.2l29.2-18.5L2026.2,948.5z M2007.8,905.6l18.4-1.8L1999,921l-28.1,1.8
			l-7.6-60.9l42.9,43.1C2006.7,905.4,2007.3,905.7,2007.8,905.6z M1959.1,860.9l7.3,58.9l-33.6-30.5L1959.1,860.9z"/>
		<path fill="#63B8E7" d="M2027.8,1076.7c0-0.2,0-0.3,0-0.5c0-0.1-0.1-0.2-0.1-0.3c0-0.1,0-0.2-0.1-0.2c0-0.1-0.1-0.1-0.2-0.2
			c0-0.1-0.1-0.1-0.1-0.2l-25.8-30.2l-3.1-60.1c0-0.8-0.5-1.5-1.3-1.8c-0.7-0.3-1.6-0.1-2.1,0.5l-31.1,31.5l-20.1,2.3l1.9-57.1
			c0-0.6-0.3-1.2-0.7-1.6c-0.5-0.4-1.1-0.5-1.7-0.4c-2.6,0.7-41,9.9-41.4,10c-0.3,0.1-0.6,0.2-0.8,0.4l-28,24.3l-10.9-23.6
			c-0.3-0.6-0.8-1-1.5-1.1c-0.6-0.1-1.3,0.1-1.8,0.6l-32.7,32.7c0,0,0,0.1-0.1,0.1c-0.1,0.1-0.2,0.3-0.3,0.5c0,0-0.1,0.1-0.1,0.1
			c0,0,0,0,0,0.1c-0.1,0.2-0.1,0.4-0.1,0.6c0,0,0,0,0,0v14.2l-30.3,16.1c-0.1,0.1-0.3,0.2-0.4,0.2l-23.4,20
			c-0.1,0.1-0.1,0.1-0.2,0.2c-0.1,0.1-0.2,0.2-0.3,0.4c0,0-0.1,0.1-0.1,0.1l-16.7,35.4c-0.1,0.3-0.2,0.6-0.2,0.9l1.3,60.8
			c0,1.1,0.9,2,2,2h34c0.5,0,1-0.2,1.3-0.5l28.5-25.3l36.6,11.6l35.6,28.5l-2.6,52.4c0,0.5,0.2,1.1,0.5,1.5c0.4,0.4,0.9,0.6,1.5,0.6
			h43.4c0,0,0,0,0,0c0,0,0,0,0,0c0.3,0,0.5-0.1,0.7-0.2c0.1,0,0.1-0.1,0.2-0.1c0.1,0,0.2-0.1,0.3-0.1c0.1,0,0.1-0.1,0.1-0.2
			c0,0,0.1-0.1,0.1-0.1l45.6-51.1c0.1,0,0.2,0,0.2,0c0.3-0.1,0.5-0.3,0.6-0.4c0,0,0-0.1,0.1-0.1c0.1-0.1,0.2-0.3,0.3-0.4
			c0-0.1,0.1-0.1,0.1-0.2c0.1-0.2,0.1-0.4,0.1-0.6c0,0,0-0.1,0-0.1c0,0,0,0,0,0c0,0,0,0,0,0c0,0,0,0,0,0l33.7-45.3
			c0.2-0.2,0.3-0.5,0.4-0.8l8.8-45.4C2027.8,1076.8,2027.8,1076.8,2027.8,1076.7z M1936.5,1216.9l-36.4-48l78.1,1.4L1936.5,1216.9z
			 M1829.6,1018.6C1829.6,1018.5,1829.6,1018.5,1829.6,1018.6c0-0.1,0-0.1,0-0.1v-10.4l58.5,60.9l-64.9,51.9L1829.6,1018.6z
			 M1870.8,998.7l16.3,63.6l-55.5-57.8L1870.8,998.7z M1875.2,999.5l62.8,21.1l-45.9,44.7L1875.2,999.5z M1957.7,1105.7L1894,1069
			l46.5-45.3L1957.7,1105.7z M1956.9,1109.9l-59.1,52.7l-4.9-89.6L1956.9,1109.9z M1901.1,1164.9l57.9-51.6l21,53L1901.1,1164.9z
			 M1961.5,1104.3l-17-81.1l52.3,23.5L1961.5,1104.3z M1999.9,1049.2l22.8,26.7l-56.7,28.8L1999.9,1049.2z M1965.1,1019.1
			c0.5-0.1,0.9-0.3,1.2-0.6l28.4-28.8l2.8,52.9l-48.3-21.7L1965.1,1019.1z M1903.3,972.2c4-1,29.8-7.2,38.4-9.3l-1.8,54.1
			l-63.6-21.4L1903.3,972.2z M1859.7,973.8l9.7,21l-36.1,5.4L1859.7,973.8z M1797.3,1036.8l28-14.9l-6.1,97.4l-43.8-63.8
			L1797.3,1036.8z M1790.7,1149.3h-31.3l-1.3-58.3l15-31.8l45.1,65.8L1790.7,1149.3z M1860.2,1135.7c-0.2-0.2-0.4-0.3-0.6-0.3
			l-34.5-10.9l63.8-51l4.9,89.1L1860.2,1135.7z M1897.4,1172l35,46h-37.3L1897.4,1172z M2015.2,1121.1l-31.8,42.8l-21-52.9
			l60.7-30.8L2015.2,1121.1z"/>
		<path fill="#63B8E7" d="M1939.6,1236.1l-33.1-2c-0.6,0-1.1,0.2-1.5,0.5c-0.4,0.4-0.6,0.9-0.6,1.5v34.7c0,0.8,0.5,1.5,1.2,1.8
			c0.3,0.1,0.5,0.2,0.8,0.2c0.5,0,1-0.2,1.4-0.6l33.1-32.7c0.6-0.6,0.7-1.4,0.5-2.1C1941.1,1236.6,1940.4,1236.1,1939.6,1236.1z
			 M1908.3,1266v-27.8l26.5,1.6L1908.3,1266z"/>
		<path fill="#63B8E7" d="M2094,1258.7c-0.4-0.4-0.9-0.6-1.4-0.6c-0.5,0-1.1,0.2-1.4,0.6l-39.9,41.8l-16.2-5c-0.9-0.3-1.9,0.1-2.4,1
			l-13.4,26.7c-0.4,0.7-0.3,1.6,0.2,2.2c0.4,0.5,1,0.7,1.6,0.7c0.2,0,0.4,0,0.5-0.1l49.4-13.4c0,0,0,0,0,0c0.1,0,0.1,0,0.2-0.1
			c0.1,0,0.2-0.1,0.3-0.2c0.1,0,0.1-0.1,0.2-0.1c0.1-0.1,0.1-0.1,0.2-0.2l36.1-36.7c0.8-0.8,0.8-2,0-2.8L2094,1258.7z
			 M2035.6,1299.9l15.6,4.8l13.3,5.7l-39.5,10.7L2035.6,1299.9z M2070.1,1308.5l-14.8-6.3l37.3-39.2l11.2,11.2L2070.1,1308.5z"/>
		<path fill="#63B8E7" d="M2161.9,1235.4c-0.2-0.6-0.7-1.1-1.3-1.3l-12.1-3.6l-2.6-28.7c-0.1-0.7-0.5-1.3-1.1-1.6
			c-0.6-0.3-1.4-0.3-2,0.1l-17.4,11.4c-0.6,0.4-0.9,1.1-0.9,1.8l1.3,25.6l-11.2,24.9c-0.1,0.3-0.2,0.7-0.2,1l2.7,27.4
			c0.1,0.8,0.7,1.5,1.5,1.7c0.2,0,0.4,0.1,0.5,0.1c0.6,0,1.2-0.3,1.6-0.8l40.7-56.1C2162,1236.7,2162.1,1236.1,2161.9,1235.4z
			 M2142.3,1205.5l2.2,25.2l-14.7,5.8l-1.1-22.1L2142.3,1205.5z M2120.8,1286.7l-2.1-21.6l10.8-24.1l17.3-6.8l10,3L2120.8,1286.7z"
			/>
	</g>
</g>
</svg>
